<svg width="40" height="40" viewBox="0 0 40 40" fill="none" xmlns="http://www.w3.org/2000/svg">
<path d="M20 30.0002V8.3335" stroke="#4593FF" stroke-width="3" stroke-linecap="round" stroke-linejoin="round"/>
<path d="M25 21.6667C23.558 21.2451 22.2914 20.3677 21.39 19.1658C20.4886 17.964 20.0009 16.5023 20 15C19.9991 16.5023 19.5114 17.964 18.61 19.1658C17.7086 20.3677 16.442 21.2451 15 21.6667" stroke="#4593FF" stroke-width="3" stroke-linecap="round" stroke-linejoin="round"/>
<path d="M29.33 10.8332C29.7135 10.169 29.9391 9.42553 29.9893 8.66022C30.0395 7.8949 29.9129 7.1283 29.6194 6.41972C29.326 5.71113 28.8734 5.07956 28.2968 4.57386C27.7202 4.06816 27.0349 3.70189 26.2941 3.50338C25.5533 3.30488 24.7767 3.27946 24.0245 3.42909C23.2723 3.57872 22.5646 3.8994 21.9561 4.3663C21.3477 4.83321 20.8548 5.43383 20.5156 6.12171C20.1764 6.80958 20 7.56627 20 8.33323C20 7.56627 19.8236 6.80958 19.4844 6.12171C19.1452 5.43383 18.6523 4.83321 18.0439 4.3663C17.4354 3.8994 16.7277 3.57872 15.9755 3.42909C15.2233 3.27946 14.4467 3.30488 13.7059 3.50338C12.9651 3.70189 12.2798 4.06816 11.7032 4.57386C11.1266 5.07956 10.674 5.71113 10.3806 6.41972C10.0871 7.1283 9.96053 7.8949 10.0107 8.66022C10.0609 9.42553 10.2865 10.169 10.67 10.8332" stroke="#4593FF" stroke-width="3" stroke-linecap="round" stroke-linejoin="round"/>
<path d="M29.995 8.5415C30.9747 8.7934 31.8842 9.26492 32.6546 9.92036C33.4251 10.5758 34.0363 11.398 34.4419 12.3246C34.8476 13.2512 35.0371 14.258 34.996 15.2687C34.955 16.2794 34.6845 17.2675 34.205 18.1582" stroke="#4593FF" stroke-width="3" stroke-linecap="round" stroke-linejoin="round"/>
<path d="M30 30.0001C31.4675 30 32.894 29.5157 34.0582 28.6223C35.2225 27.7289 36.0594 26.4764 36.4392 25.0589C36.819 23.6414 36.7205 22.1382 36.159 20.7823C35.5974 19.4265 34.6042 18.2939 33.3333 17.5601" stroke="#4593FF" stroke-width="3" stroke-linecap="round" stroke-linejoin="round"/>
<path d="M33.2783 29.1382C33.3952 30.0419 33.3254 30.96 33.0735 31.8357C32.8216 32.7115 32.3929 33.5262 31.8137 34.2298C31.2346 34.9333 30.5173 35.5106 29.7063 35.9261C28.8953 36.3416 28.0077 36.5864 27.0984 36.6454C26.1891 36.7044 25.2773 36.5764 24.4194 36.2692C23.5615 35.962 22.7756 35.4822 22.1104 34.8595C21.4452 34.2367 20.9147 33.4841 20.5517 32.6483C20.1888 31.8125 20.001 30.9111 20 29.9999C19.999 30.9111 19.8113 31.8125 19.4483 32.6483C19.0853 33.4841 18.5548 34.2367 17.8896 34.8595C17.2244 35.4822 16.4386 35.962 15.5807 36.2692C14.7228 36.5764 13.811 36.7044 12.9016 36.6454C11.9923 36.5864 11.1047 36.3416 10.2937 35.9261C9.4827 35.5106 8.76547 34.9333 8.18632 34.2298C7.60718 33.5262 7.17841 32.7115 6.9265 31.8357C6.67458 30.96 6.60488 30.0419 6.72168 29.1382" stroke="#4593FF" stroke-width="3" stroke-linecap="round" stroke-linejoin="round"/>
<path d="M9.99999 30.0001C8.53249 30 7.106 29.5157 5.94177 28.6223C4.77754 27.7289 3.94061 26.4764 3.56079 25.0589C3.18096 23.6414 3.27947 22.1382 3.84102 20.7823C4.40258 19.4265 5.3958 18.2939 6.66666 17.5601" stroke="#4593FF" stroke-width="3" stroke-linecap="round" stroke-linejoin="round"/>
<path d="M10.005 8.5415C9.02532 8.7934 8.11582 9.26492 7.34537 9.92036C6.57492 10.5758 5.96372 11.398 5.55806 12.3246C5.1524 13.2512 4.96292 14.258 5.00397 15.2687C5.04502 16.2794 5.31552 17.2675 5.79498 18.1582" stroke="#4593FF" stroke-width="3" stroke-linecap="round" stroke-linejoin="round"/>
</svg>
