<svg xmlns="http://www.w3.org/2000/svg" width="1362" height="624" viewBox="0 0 1362 624" fill="none"> <path d="M786.022 117.443L786.5 105.5L736 83L732 84.5L732.5 42L639.5 0L548 28.5V48L508 30L434.5 60L435.48 128.12C432.544 128.521 429.613 128.929 426.686 129.343L412 122L358.49 140.139C214.58 165.298 86.1277 202.422 0 230.602V259.5L34 275L33.5 340.766L70.7352 358.82C70.591 359.399 70.8311 360.06 71.4474 360.365L584.47 614.145C607.065 625.323 633.391 626.179 656.666 616.495L1203.68 388.874C1204.38 388.58 1204.97 388.167 1205.43 387.676L656.132 610.5C652.562 611.949 648.922 613.15 645.237 614.106C648.878 613.154 652.473 611.961 656.001 610.527L1349.73 328.617V243.5L1362 238.797C1236.87 197.403 1019.93 136.118 786.022 117.443Z" fill="#A6EFFF" style="mix-blend-mode:color"></path> <path d="M786.022 117.443L786.5 105.5L736 83L732 84.5L732.5 42L639.5 0L548 28.5V48L508 30L434.5 60L435.48 128.12C432.544 128.521 429.613 128.929 426.686 129.343L412 122L358.49 140.139C214.58 165.298 86.1277 202.422 0 230.602V259.5L34 275L33.5 340.766L70.7352 358.82C70.591 359.399 70.8311 360.06 71.4474 360.365L584.47 614.145C607.065 625.323 633.391 626.179 656.666 616.495L1203.68 388.874C1204.38 388.58 1204.97 388.167 1205.43 387.676L656.132 610.5C652.562 611.949 648.922 613.15 645.237 614.106C648.878 613.154 652.473 611.961 656.001 610.527L1349.73 328.617V243.5L1362 238.797C1236.87 197.403 1019.93 136.118 786.022 117.443Z" fill="white" fill-opacity="0.17" style="mix-blend-mode:overlay"></path> </svg>