<svg xmlns="http://www.w3.org/2000/svg" width="1181" height="959" viewBox="0 0 1181 959" fill="none"> <path d="M1174.38 698.791L521.683 952.899C499.251 961.632 474.207 960.708 452.479 950.345L66.0001 766.017V696.665L65.0001 696L27.5001 678.594L29.5001 522.5L0.00012207 509V310L88.5001 277L171 315.5L170.5 348L198.5 333.5L234 354.5L234.5 359L233 360L229 362V378L239 382L247 385.5L254.5 389.5L260 393L266 397.5V337.689L262 335.5V323L274 318L273.5 223L272.5 222.5V220L294 210.5L293.5 204L296.5 202.5V189.5L294.5 188.5V187L298 185L296 184L301 181.5V180.5L299.5 179.5L313 172.5V164.5H314.5L315.5 172.5L330 181.5L327.5 182.5V183L333 186L331 187V187.5L335 189V190.5L332 191.5V205L334 206V213.265L355 223.5L354.5 226L353.5 226.5L354 277L385 265L405.5 273.5L413.5 210.5L414.5 209.5L415.5 209L418 208.5L421.5 188L428 154.5L439.5 90.0002L445 62.0002L454 27.0002L461 0.000183105L462.5 4.00018L465 12.5002L474 48.0002L477.5 60.5002L479.5 72.0002L487 108.5L500 178.5L506 210.5L511 214L513 232L529 341L531 357L540.5 423V368.293L532 362V357L546.5 350L546 274.5L536.5 268V258.5L542.5 251.5L545.5 250.5V176.5L543.5 175L542.5 150.5L601 129.5L656.5 161L656 261.5L667 265L671.5 269.5V275L656 280L655.5 315L683 327.5L682.5 409L694 404.5L776.5 438.5V458L778.5 459L781.5 462.5L784.5 467.5V472.5L784 476.5L782 480L779.5 482.5H779L778 484L776.5 485V490L781 493.236L787 495.994L786 494L784.5 492.5L785 491L784.5 490.5V489L784 488L785 486L784.5 485.5L785 484L786 483.5L785.5 483L786 482L786.5 481.5L786 481L789 478L789.5 477L791 475.5L792 475H792.5V474.5L793.5 473.5L794 474L795.5 472.5H797.5L798.5 471.5L800 471L800.5 471.5L801.5 471L804.5 470.5L805.5 471L808 471.5L809 472H810L810.5 472.5H811.5L814.5 474.5L817.5 477.5L818 478.5L819 480L820.5 481V482L822 485L821.5 486.5L822 487.5V489L821.5 492.5L819 497.5L816.5 499.5H816L815.5 500.5H815L814.5 501.5H813.5L813 501L812 501.5H811L810.5 502.5L809 502L808.5 501.5L807.568 505.449L811 506L814.5 507.5L817.5 509.5L818.5 510.475L824.202 513.097L824 512.5L823 511L821.5 509L822 508L821.5 507.5L822 506L821.5 505V504L822 503V501L823 500V499.5L823.5 498.5L823 498L823.5 497H824L824.5 496L825.5 495.5L826 494.5L827.5 493L828 492H829.5V491L830.5 490.5H831.5L832.5 489.5H834.5L836 488H837.5L839 487.5H840.5L841.5 487H842L842.5 487.5L844.5 488L846 488.5L848 489L849.5 489.5L850 490.5L851 491L853.5 492.5V493.5L854.5 494L855.5 495.5L856 496V496.5L857.5 497.5L858 498.5V499L858.5 500V500.5L859 501V503L859.5 504.5H860.5L863 504L865 503.5L867.5 503L874.5 502.5H879.5L886 503L890.5 504L892 505L892.5 506V508L893 511L894.5 513.5L896.5 516L899 518L901.5 519.5L906 522L908 521.5L914 520.5H918.5L925 522.5L928.5 523.5L933 525L937.5 526L941.5 526.5L945 527L949 528.5L954 531L956.5 533L959 535.5L961 539L961.5 542V551L961.03 576L1174.92 674.331C1179.92 676.629 1181.77 681.872 1180.58 686.392C1181.87 691.141 1179.76 696.694 1174.38 698.791Z" fill="#325BAB" style="mix-blend-mode:color"></path> <path d="M1174.38 698.791L521.683 952.899C499.251 961.632 474.207 960.708 452.479 950.345L66.0001 766.017V696.665L65.0001 696L27.5001 678.594L29.5001 522.5L0.00012207 509V310L88.5001 277L171 315.5L170.5 348L198.5 333.5L234 354.5L234.5 359L233 360L229 362V378L239 382L247 385.5L254.5 389.5L260 393L266 397.5V337.689L262 335.5V323L274 318L273.5 223L272.5 222.5V220L294 210.5L293.5 204L296.5 202.5V189.5L294.5 188.5V187L298 185L296 184L301 181.5V180.5L299.5 179.5L313 172.5V164.5H314.5L315.5 172.5L330 181.5L327.5 182.5V183L333 186L331 187V187.5L335 189V190.5L332 191.5V205L334 206V213.265L355 223.5L354.5 226L353.5 226.5L354 277L385 265L405.5 273.5L413.5 210.5L414.5 209.5L415.5 209L418 208.5L421.5 188L428 154.5L439.5 90.0002L445 62.0002L454 27.0002L461 0.000183105L462.5 4.00018L465 12.5002L474 48.0002L477.5 60.5002L479.5 72.0002L487 108.5L500 178.5L506 210.5L511 214L513 232L529 341L531 357L540.5 423V368.293L532 362V357L546.5 350L546 274.5L536.5 268V258.5L542.5 251.5L545.5 250.5V176.5L543.5 175L542.5 150.5L601 129.5L656.5 161L656 261.5L667 265L671.5 269.5V275L656 280L655.5 315L683 327.5L682.5 409L694 404.5L776.5 438.5V458L778.5 459L781.5 462.5L784.5 467.5V472.5L784 476.5L782 480L779.5 482.5H779L778 484L776.5 485V490L781 493.236L787 495.994L786 494L784.5 492.5L785 491L784.5 490.5V489L784 488L785 486L784.5 485.5L785 484L786 483.5L785.5 483L786 482L786.5 481.5L786 481L789 478L789.5 477L791 475.5L792 475H792.5V474.5L793.5 473.5L794 474L795.5 472.5H797.5L798.5 471.5L800 471L800.5 471.5L801.5 471L804.5 470.5L805.5 471L808 471.5L809 472H810L810.5 472.5H811.5L814.5 474.5L817.5 477.5L818 478.5L819 480L820.5 481V482L822 485L821.5 486.5L822 487.5V489L821.5 492.5L819 497.5L816.5 499.5H816L815.5 500.5H815L814.5 501.5H813.5L813 501L812 501.5H811L810.5 502.5L809 502L808.5 501.5L807.568 505.449L811 506L814.5 507.5L817.5 509.5L818.5 510.475L824.202 513.097L824 512.5L823 511L821.5 509L822 508L821.5 507.5L822 506L821.5 505V504L822 503V501L823 500V499.5L823.5 498.5L823 498L823.5 497H824L824.5 496L825.5 495.5L826 494.5L827.5 493L828 492H829.5V491L830.5 490.5H831.5L832.5 489.5H834.5L836 488H837.5L839 487.5H840.5L841.5 487H842L842.5 487.5L844.5 488L846 488.5L848 489L849.5 489.5L850 490.5L851 491L853.5 492.5V493.5L854.5 494L855.5 495.5L856 496V496.5L857.5 497.5L858 498.5V499L858.5 500V500.5L859 501V503L859.5 504.5H860.5L863 504L865 503.5L867.5 503L874.5 502.5H879.5L886 503L890.5 504L892 505L892.5 506V508L893 511L894.5 513.5L896.5 516L899 518L901.5 519.5L906 522L908 521.5L914 520.5H918.5L925 522.5L928.5 523.5L933 525L937.5 526L941.5 526.5L945 527L949 528.5L954 531L956.5 533L959 535.5L961 539L961.5 542V551L961.03 576L1174.92 674.331C1179.92 676.629 1181.77 681.872 1180.58 686.392C1181.87 691.141 1179.76 696.694 1174.38 698.791Z" fill="white" fill-opacity="0.17" style="mix-blend-mode:overlay"></path> </svg>