<svg xmlns="http://www.w3.org/2000/svg" width="1828" height="643" viewBox="0 0 1828 643" fill="none"> <path d="M351.236 634.031L6.1818 470.543C1.24764 468.205 -0.55598 462.99 0.642009 458.501C1.42954 455.55 3.5142 452.912 6.85935 451.611L1030.04 53.6549L1230.01 145.438C1243.54 151.651 1258.95 152.401 1273.03 147.533L1611.33 30.5176L1821.95 132.776C1825.18 134.343 1827.04 137.139 1827.59 140.144C1828.42 144.708 1826.21 149.752 1821.11 151.692L1441.5 296.232L1398.43 312.63L1397.29 313.067C1394.53 314.116 1394.34 317.942 1396.98 319.254L1462.36 351.768C1462.94 352.056 1463.38 352.464 1463.69 352.938C1464.79 354.625 1464.21 357.137 1462.06 357.955L1162.49 472.001C1151.37 476.235 1139.01 475.779 1128.23 470.738L1012.8 416.751C1006.21 413.67 998.651 413.408 991.867 416.024L419.981 636.589C397.683 645.189 372.833 644.264 351.236 634.031Z" fill="url(#paint0_linear_467_2742)" style="mix-blend-mode:color"></path> <path d="M351.236 634.031L6.1818 470.543C1.24764 468.205 -0.55598 462.99 0.642009 458.501C1.42954 455.55 3.5142 452.912 6.85935 451.611L1030.04 53.6549L1230.01 145.438C1243.54 151.651 1258.95 152.401 1273.03 147.533L1611.33 30.5176L1821.95 132.776C1825.18 134.343 1827.04 137.139 1827.59 140.144C1828.42 144.708 1826.21 149.752 1821.11 151.692L1441.5 296.232L1398.43 312.63L1397.29 313.067C1394.53 314.116 1394.34 317.942 1396.98 319.254L1462.36 351.768C1462.94 352.056 1463.38 352.464 1463.69 352.938C1464.79 354.625 1464.21 357.137 1462.06 357.955L1162.49 472.001C1151.37 476.235 1139.01 475.779 1128.23 470.738L1012.8 416.751C1006.21 413.67 998.651 413.408 991.867 416.024L419.981 636.589C397.683 645.189 372.833 644.264 351.236 634.031Z" fill="white" fill-opacity="0.17" style="mix-blend-mode:overlay"></path> <path d="M559.5 226L555.5 232.202L695.5 177.622L686 174L674.5 171L657.5 166H653.5L652 165L649.5 165.5L648.5 166H646.5L637 168.5V169.5L628.5 171.5L621.5 173.5L611 177.5L604.5 181L595.5 186L592 188.5V189.5L589.5 191.5L585 196L576.5 205L571.5 210.5L564.5 218.5L559.5 226Z" fill="url(#paint1_linear_467_2742)" style="mix-blend-mode:color"></path> <path d="M559.5 226L555.5 232.202L695.5 177.622L686 174L674.5 171L657.5 166H653.5L652 165L649.5 165.5L648.5 166H646.5L637 168.5V169.5L628.5 171.5L621.5 173.5L611 177.5L604.5 181L595.5 186L592 188.5V189.5L589.5 191.5L585 196L576.5 205L571.5 210.5L564.5 218.5L559.5 226Z" fill="white" fill-opacity="0.17" style="mix-blend-mode:overlay"></path> <path d="M1030.04 53.6549L1230.01 145.438C1243.54 151.651 1258.95 152.401 1273.03 147.533L1611.33 30.5176L1821.95 132.776C1825.18 134.343 1827.04 137.139 1827.59 140.144C1828.47 135.875 1826.71 131.096 1822.14 128.79L1801.08 118.167L1600.55 16.9927L1579.75 24.824L1510.5 50.8958L1272.06 140.663C1257.42 146.175 1241.17 145.519 1227.02 138.844L1165.5 109.824L1128.65 92.4424L1031.52 46.6222L871.5 109.008L868.955 110L733.5 162.808L695.5 177.622L555.5 232.202L322.596 323L87.4996 414.653L6.83738 446.099C1.45784 448.197 -0.657317 453.751 0.642009 458.501C1.42954 455.55 3.5142 452.912 6.85935 451.611L1030.04 53.6549Z" fill="url(#paint2_linear_467_2742)" style="mix-blend-mode:color"></path> <path d="M1030.04 53.6549L1230.01 145.438C1243.54 151.651 1258.95 152.401 1273.03 147.533L1611.33 30.5176L1821.95 132.776C1825.18 134.343 1827.04 137.139 1827.59 140.144C1828.47 135.875 1826.71 131.096 1822.14 128.79L1801.08 118.167L1600.55 16.9927L1579.75 24.824L1510.5 50.8958L1272.06 140.663C1257.42 146.175 1241.17 145.519 1227.02 138.844L1165.5 109.824L1128.65 92.4424L1031.52 46.6222L871.5 109.008L868.955 110L733.5 162.808L695.5 177.622L555.5 232.202L322.596 323L87.4996 414.653L6.83738 446.099C1.45784 448.197 -0.657317 453.751 0.642009 458.501C1.42954 455.55 3.5142 452.912 6.85935 451.611L1030.04 53.6549Z" fill="white" fill-opacity="0.17" style="mix-blend-mode:overlay"></path> <path d="M732.5 136.5L733.5 162.808L868.955 110L833.5 95.5L732.5 136.5Z" fill="url(#paint3_linear_467_2742)" style="mix-blend-mode:color"></path> <path d="M732.5 136.5L733.5 162.808L868.955 110L833.5 95.5L732.5 136.5Z" fill="white" fill-opacity="0.17" style="mix-blend-mode:overlay"></path> <path d="M871.5 109.008L1031.52 46.6222L1128.65 92.4424L1140.5 88V84.5L1129 77.5V62.5L1063.5 32L1047.5 39L1007 20.5L958 38.5V60L956 59L954.5 58.5L952.5 59L951 59.5L948.5 57.5L946 56.5L943 57L941.5 58L940 57L937 57.5L935.5 58L933.5 60L933 61.5L931.5 63H930.5L928.5 64L927 65.5L926 67H925L921.5 67.5L920 68.5L918.5 70V71L917 72.5V74L914.5 73.5L912.5 74L911.5 74.5L911 73L910 70.5L908 69L905.5 68H902.5L900.5 69L898 66.5L895 65.5L891.5 66L889.5 67L888.5 66.5H885.5L883 67L880.5 69L879.5 71.5L878 73L875.5 73.5L874 74.5L872.5 76.5L872 77.8609L869.5 77.5L867 77.8609L865 79L863.5 80.5L862.5 82.5L861.5 83.5L861 85.5L861.5 88H860L857.5 90.5L857 93L857.5 95.5L859 97.5L860.5 98.5L861.5 101L863.5 102.5H865.5L867 102L868 104L869.5 105.5H870.5V107L871.5 109.008Z" fill="url(#paint4_linear_467_2742)" style="mix-blend-mode:color"></path> <path d="M871.5 109.008L1031.52 46.6222L1128.65 92.4424L1140.5 88V84.5L1129 77.5V62.5L1063.5 32L1047.5 39L1007 20.5L958 38.5V60L956 59L954.5 58.5L952.5 59L951 59.5L948.5 57.5L946 56.5L943 57L941.5 58L940 57L937 57.5L935.5 58L933.5 60L933 61.5L931.5 63H930.5L928.5 64L927 65.5L926 67H925L921.5 67.5L920 68.5L918.5 70V71L917 72.5V74L914.5 73.5L912.5 74L911.5 74.5L911 73L910 70.5L908 69L905.5 68H902.5L900.5 69L898 66.5L895 65.5L891.5 66L889.5 67L888.5 66.5H885.5L883 67L880.5 69L879.5 71.5L878 73L875.5 73.5L874 74.5L872.5 76.5L872 77.8609L869.5 77.5L867 77.8609L865 79L863.5 80.5L862.5 82.5L861.5 83.5L861 85.5L861.5 88H860L857.5 90.5L857 93L857.5 95.5L859 97.5L860.5 98.5L861.5 101L863.5 102.5H865.5L867 102L868 104L869.5 105.5H870.5V107L871.5 109.008Z" fill="white" fill-opacity="0.17" style="mix-blend-mode:overlay"></path> <path d="M1227.02 138.844C1241.17 145.519 1257.42 146.175 1272.06 140.663L1510.5 50.8958L1473.5 34.5L1395 66.5L1392.5 65.5L1392 66.5L1369 76.5V81.5L1345 91.5V100.5L1334 105L1333.5 105.5L1334 106.5L1335.5 107V108.5L1334.5 107.5L1332.5 107H1330.5L1328.5 107.5L1326.5 105.5L1324 105H1321.5L1319 106L1315.5 105L1313 106L1311.5 107.5L1310.5 109.5L1308.5 111L1307 111.5L1305 113L1304 115H1301.5L1298.5 115.5L1296.5 117.5L1296 119L1294.5 121V122.5L1259 106.5L1244 112.5L1206.5 95L1165.5 109.824L1227.02 138.844Z" fill="url(#paint5_linear_467_2742)" style="mix-blend-mode:color"></path> <path d="M1227.02 138.844C1241.17 145.519 1257.42 146.175 1272.06 140.663L1510.5 50.8958L1473.5 34.5L1395 66.5L1392.5 65.5L1392 66.5L1369 76.5V81.5L1345 91.5V100.5L1334 105L1333.5 105.5L1334 106.5L1335.5 107V108.5L1334.5 107.5L1332.5 107H1330.5L1328.5 107.5L1326.5 105.5L1324 105H1321.5L1319 106L1315.5 105L1313 106L1311.5 107.5L1310.5 109.5L1308.5 111L1307 111.5L1305 113L1304 115H1301.5L1298.5 115.5L1296.5 117.5L1296 119L1294.5 121V122.5L1259 106.5L1244 112.5L1206.5 95L1165.5 109.824L1227.02 138.844Z" fill="white" fill-opacity="0.17" style="mix-blend-mode:overlay"></path> <path d="M1579.75 24.824L1600.55 16.9927L1801.08 118.167L1802.5 118.5L1804.5 118L1805.5 117L1806.5 117.5L1808 118L1809 117.5L1810.5 116L1811 116.5L1813 116L1814.5 114.5L1815 113L1817 112L1818 111V108L1817.5 107L1816 106L1814.5 105.5V103.5L1813 101.5L1810.5 101L1810 99.5L1808.5 98L1806 97L1804 97.5L1803.5 97L1802.5 95L1800.5 94H1796.5L1795 93L1793.5 92.5H1791.5L1789.5 90.5L1788 90V89L1787.5 87.5L1786 86L1784 85.5L1783.5 84L1781.5 82L1779 81.5L1777 82V81L1775.5 79L1772.5 78L1770.5 78.5L1769 77.5L1767 76L1765 75.5V74.5L1763.5 72.5L1761 72H1758.5L1757.5 70L1756.5 69L1754.5 68.5H1752L1749 67H1746.5L1745.5 66.5H1744V65L1743.5 63.5L1742 62H1740L1739.5 60L1737.5 58.5L1735 58L1733.5 58.5L1733 57L1731.5 55.5L1730 55H1727.5L1726.5 55.5L1725.5 54.5L1724 53.5H1721.5L1720 54H1719V52.5L1718 50.5L1716 49.5H1715V49L1714 47L1712 46L1709.5 45.5L1708 46V45L1707 43.5L1705 42H1703L1701.5 42.5L1698.5 40.5H1696L1694.5 41.5H1693.5L1693 40.5L1691.5 39.5L1689.5 39V38.5L1688.5 37L1687 36L1685 35.5H1683V34.5L1681.5 33L1679.5 32H1677.5L1676 32.5L1675 31.5L1673 30.5H1671L1668.5 31L1666.5 29.5L1664.5 29L1664 27.5L1662.5 26L1660 25L1658 25.5L1657.5 24.5L1656 22.5L1653.5 22H1651L1650.5 21.5L1648 20.5H1645.5L1644 21.5L1643 21L1642.5 20L1641 19H1639.5L1639 18.5L1638.5 17L1636.5 15.5L1634 15L1632.5 15.5V14L1630.5 12L1628 11.5L1625.5 12L1623.5 10.5L1621 10L1619 11L1616.5 10.5L1615.5 9.5L1614 9H1613L1612.5 7L1611 5.5L1608 5L1606.5 5.5L1606 4L1605 3L1603 2H1600.5L1599.5 2.5L1598 1L1596.5 0.5H1595L1593.5 1L1593 1.5L1592 1H1589.5L1587 2.5L1586.5 4L1585.5 5H1584L1582.5 6.5L1581.5 8H1579.5L1577.5 8.5L1576.5 9.5L1576 10.5L1575 12V14L1573.5 15L1572.5 16V17.5L1573 19L1573.5 20L1574.5 21L1575 22L1576.5 23.5H1578.5L1579 24L1579.75 24.824Z" fill="url(#paint6_linear_467_2742)" style="mix-blend-mode:color"></path> <path d="M1579.75 24.824L1600.55 16.9927L1801.08 118.167L1802.5 118.5L1804.5 118L1805.5 117L1806.5 117.5L1808 118L1809 117.5L1810.5 116L1811 116.5L1813 116L1814.5 114.5L1815 113L1817 112L1818 111V108L1817.5 107L1816 106L1814.5 105.5V103.5L1813 101.5L1810.5 101L1810 99.5L1808.5 98L1806 97L1804 97.5L1803.5 97L1802.5 95L1800.5 94H1796.5L1795 93L1793.5 92.5H1791.5L1789.5 90.5L1788 90V89L1787.5 87.5L1786 86L1784 85.5L1783.5 84L1781.5 82L1779 81.5L1777 82V81L1775.5 79L1772.5 78L1770.5 78.5L1769 77.5L1767 76L1765 75.5V74.5L1763.5 72.5L1761 72H1758.5L1757.5 70L1756.5 69L1754.5 68.5H1752L1749 67H1746.5L1745.5 66.5H1744V65L1743.5 63.5L1742 62H1740L1739.5 60L1737.5 58.5L1735 58L1733.5 58.5L1733 57L1731.5 55.5L1730 55H1727.5L1726.5 55.5L1725.5 54.5L1724 53.5H1721.5L1720 54H1719V52.5L1718 50.5L1716 49.5H1715V49L1714 47L1712 46L1709.5 45.5L1708 46V45L1707 43.5L1705 42H1703L1701.5 42.5L1698.5 40.5H1696L1694.5 41.5H1693.5L1693 40.5L1691.5 39.5L1689.5 39V38.5L1688.5 37L1687 36L1685 35.5H1683V34.5L1681.5 33L1679.5 32H1677.5L1676 32.5L1675 31.5L1673 30.5H1671L1668.5 31L1666.5 29.5L1664.5 29L1664 27.5L1662.5 26L1660 25L1658 25.5L1657.5 24.5L1656 22.5L1653.5 22H1651L1650.5 21.5L1648 20.5H1645.5L1644 21.5L1643 21L1642.5 20L1641 19H1639.5L1639 18.5L1638.5 17L1636.5 15.5L1634 15L1632.5 15.5V14L1630.5 12L1628 11.5L1625.5 12L1623.5 10.5L1621 10L1619 11L1616.5 10.5L1615.5 9.5L1614 9H1613L1612.5 7L1611 5.5L1608 5L1606.5 5.5L1606 4L1605 3L1603 2H1600.5L1599.5 2.5L1598 1L1596.5 0.5H1595L1593.5 1L1593 1.5L1592 1H1589.5L1587 2.5L1586.5 4L1585.5 5H1584L1582.5 6.5L1581.5 8H1579.5L1577.5 8.5L1576.5 9.5L1576 10.5L1575 12V14L1573.5 15L1572.5 16V17.5L1573 19L1573.5 20L1574.5 21L1575 22L1576.5 23.5H1578.5L1579 24L1579.75 24.824Z" fill="white" fill-opacity="0.17" style="mix-blend-mode:overlay"></path> <path d="M87.4996 389V414.653L322.596 323L311.5 322.5L294 323L285.5 323.5L275 325L262.5 328L245 334.5L234.5 339.5L223 345.5L201.5 357L192 361L186.5 362.5L181.5 363H178.5L175.5 362.5L171.5 361L167.5 359L157 353L88.9996 381L85.4996 383V388L87.4996 389Z" fill="url(#paint7_linear_467_2742)" style="mix-blend-mode:color"></path> <path d="M87.4996 389V414.653L322.596 323L311.5 322.5L294 323L285.5 323.5L275 325L262.5 328L245 334.5L234.5 339.5L223 345.5L201.5 357L192 361L186.5 362.5L181.5 363H178.5L175.5 362.5L171.5 361L167.5 359L157 353L88.9996 381L85.4996 383V388L87.4996 389Z" fill="white" fill-opacity="0.17" style="mix-blend-mode:overlay"></path> <path d="M1401.35 317.158L1441.5 336.954V296.232L1398.43 312.63C1398.49 314.435 1399.45 316.218 1401.35 317.158Z" fill="url(#paint8_linear_467_2742)" style="mix-blend-mode:color"></path> <path d="M1401.35 317.158L1441.5 336.954V296.232L1398.43 312.63C1398.49 314.435 1399.45 316.218 1401.35 317.158Z" fill="white" fill-opacity="0.17" style="mix-blend-mode:overlay"></path> <path d="M1396.98 319.254L1462.36 351.768C1462.94 352.056 1463.38 352.464 1463.69 352.938C1464.99 351.119 1464.55 348.317 1462.24 347.181L1441.5 336.954L1401.35 317.158C1399.45 316.218 1398.49 314.435 1398.43 312.63L1397.29 313.067C1394.53 314.116 1394.34 317.942 1396.98 319.254Z" fill="url(#paint9_linear_467_2742)" style="mix-blend-mode:color"></path> <path d="M1396.98 319.254L1462.36 351.768C1462.94 352.056 1463.38 352.464 1463.69 352.938C1464.99 351.119 1464.55 348.317 1462.24 347.181L1441.5 336.954L1401.35 317.158C1399.45 316.218 1398.49 314.435 1398.43 312.63L1397.29 313.067C1394.53 314.116 1394.34 317.942 1396.98 319.254Z" fill="white" fill-opacity="0.17" style="mix-blend-mode:overlay"></path> <defs> <linearGradient id="paint0_linear_467_2742" x1="1597" y1="8.40221e-05" x2="396" y2="484" gradientUnits="userSpaceOnUse"> <stop stop-color="#8769C8"></stop> <stop offset="0.495415" stop-color="#325BAB"></stop> <stop offset="1" stop-color="#508F2A"></stop> </linearGradient> <linearGradient id="paint1_linear_467_2742" x1="1597" y1="8.40221e-05" x2="396" y2="484" gradientUnits="userSpaceOnUse"> <stop stop-color="#8769C8"></stop> <stop offset="0.495415" stop-color="#325BAB"></stop> <stop offset="1" stop-color="#508F2A"></stop> </linearGradient> <linearGradient id="paint2_linear_467_2742" x1="1597" y1="8.40221e-05" x2="396" y2="484" gradientUnits="userSpaceOnUse"> <stop stop-color="#8769C8"></stop> <stop offset="0.495415" stop-color="#325BAB"></stop> <stop offset="1" stop-color="#508F2A"></stop> </linearGradient> <linearGradient id="paint3_linear_467_2742" x1="1597" y1="8.40221e-05" x2="396" y2="484" gradientUnits="userSpaceOnUse"> <stop stop-color="#8769C8"></stop> <stop offset="0.495415" stop-color="#325BAB"></stop> <stop offset="1" stop-color="#508F2A"></stop> </linearGradient> <linearGradient id="paint4_linear_467_2742" x1="1597" y1="8.40221e-05" x2="396" y2="484" gradientUnits="userSpaceOnUse"> <stop stop-color="#8769C8"></stop> <stop offset="0.495415" stop-color="#325BAB"></stop> <stop offset="1" stop-color="#508F2A"></stop> </linearGradient> <linearGradient id="paint5_linear_467_2742" x1="1597" y1="8.40221e-05" x2="396" y2="484" gradientUnits="userSpaceOnUse"> <stop stop-color="#8769C8"></stop> <stop offset="0.495415" stop-color="#325BAB"></stop> <stop offset="1" stop-color="#508F2A"></stop> </linearGradient> <linearGradient id="paint6_linear_467_2742" x1="1597" y1="8.40221e-05" x2="396" y2="484" gradientUnits="userSpaceOnUse"> <stop stop-color="#8769C8"></stop> <stop offset="0.495415" stop-color="#325BAB"></stop> <stop offset="1" stop-color="#508F2A"></stop> </linearGradient> <linearGradient id="paint7_linear_467_2742" x1="1597" y1="8.40221e-05" x2="396" y2="484" gradientUnits="userSpaceOnUse"> <stop stop-color="#8769C8"></stop> <stop offset="0.495415" stop-color="#325BAB"></stop> <stop offset="1" stop-color="#508F2A"></stop> </linearGradient> <linearGradient id="paint8_linear_467_2742" x1="1597" y1="8.40221e-05" x2="396" y2="484" gradientUnits="userSpaceOnUse"> <stop stop-color="#8769C8"></stop> <stop offset="0.495415" stop-color="#325BAB"></stop> <stop offset="1" stop-color="#508F2A"></stop> </linearGradient> <linearGradient id="paint9_linear_467_2742" x1="1597" y1="8.40221e-05" x2="396" y2="484" gradientUnits="userSpaceOnUse"> <stop stop-color="#8769C8"></stop> <stop offset="0.495415" stop-color="#325BAB"></stop> <stop offset="1" stop-color="#508F2A"></stop> </linearGradient> </defs> </svg>