<svg xmlns="http://www.w3.org/2000/svg" width="923" height="560" viewBox="0 0 923 560" fill="none"> <path d="M484.325 550.914L6.59256 323.063C2.29147 321.012 0.411478 316.775 0.820747 312.75C1.19342 309.085 3.46424 305.594 7.53367 304.088C271.901 206.26 384.65 179.411 404.357 175.059C406.456 174.596 408.614 174.851 410.573 175.736L922.686 407.132L922.788 407.178V408.868L553.69 553.405C531.219 562.205 506.107 561.303 484.325 550.914Z" fill="#791C99" style="mix-blend-mode:color"></path> <path d="M484.325 550.914L6.59256 323.063C2.29147 321.012 0.411478 316.775 0.820747 312.75C1.19342 309.085 3.46424 305.594 7.53367 304.088C271.901 206.26 384.65 179.411 404.357 175.059C406.456 174.596 408.614 174.851 410.573 175.736L922.686 407.132L922.788 407.178V408.868L553.69 553.405C531.219 562.205 506.107 561.303 484.325 550.914Z" fill="white" fill-opacity="0.17" style="mix-blend-mode:overlay"></path> <path d="M7.53367 304.088C271.901 206.26 384.65 179.411 404.357 175.059C406.456 174.596 408.614 174.851 410.573 175.736L922.686 407.132L922.787 407.094C882.391 387.869 843.827 369.471 807.279 352C750.192 324.71 698.028 299.681 651.5 277.296C647.967 275.596 644.467 273.912 641 272.243V271.5L638 270.5L641.5 269V266L627.5 260V256.5L628.5 256L630 253L632 251V248.5L632.5 247.5V245.5L632 243L631.5 242L630.5 239.5L626 235L623.5 233.5L621 232.5L617.5 232H614.5L611.5 233L608 235L605.5 237.5L604 240L604.5 232.5V198.5L605 131L570.5 115.5V32L498 0L426 28.5V56.5L364 29L291 51.5L291.5 145.5L285.5 143V137L284.5 136L284 133L282.5 130.5V129L280.5 127.5L279.5 129.5L278 133L277.5 137L275.5 138L275 140L274.5 138.5L264 135.5H262.5L263 122L264.5 120.5V117.5L264 115.5L263.5 115V112L262.5 110L259.5 109.5V104L259 99.5V96.5L257 94V87H255L253.5 99L253 101.5L251.5 105.5L251 109L248 108V93.5L249 92.5V85L247.5 81.5L241 79.5H238.5L236.5 78.5L234.5 77V74L240 65.5L239.5 64.5L234 63.5L237.5 57.5L237 56.5L234 56L229.5 18L233 16L235.5 13.5L237 11.5L237.5 9V6L235.5 3.5L232 2.5L228 3L224.5 5L222 7L220.5 10.5L220 13.5L220.5 16L222 17.5L224.5 18.5H228.5L226 56L222.5 57.5V58.5L225.5 64L222 64.5L220 65.5V67L225 75V76.5L223 78.5L219.5 80.5L219 80L212 83L209 86L209.5 89V91.5L210 110H207.5V108.5L205.5 107.5V98L201.5 88.5L198.5 97L198 108.5L195 109L195.5 114H192L193 118L190.5 120L194 121.5V140.303L190 141.5V144.5L181 146.5V144.5L179.5 143.5L179 141.5L176.5 138L176 135.5L174.5 134.5L173 136V138.5L169.5 142L170 144.5L167.5 145L166.5 147.5L164.5 148V151.5L161 152.5V153L163.5 156L165.5 156.5L165 212L158 214.5L157.5 228L140.5 233V225.5L130.5 222V213L126 211.5L122.5 209L120 207.5L119 207L118 201L117 197.5V195L117.5 194.5V193.5L116.5 192.5V191H115V193L114 194L114.5 195V197.5L111.5 207.5L108 209.5L107 211L106.5 212L103 214V222.5L95 225V229L90.5 230L91 233L92.5 234L91.5 241.5L82 244.5L81 241.5L79.5 237.5L78 235.5L77 232.5L76 233L75.5 236L71 244L70.5 245V253L69 254L70 259.5L74.5 261.5L75 274.924L7.07761 299.812C1.38968 301.896 -0.770177 307.837 0.820747 312.75C1.19342 309.085 3.46424 305.594 7.53367 304.088Z" fill="#791C99" style="mix-blend-mode:color"></path> <path d="M7.53367 304.088C271.901 206.26 384.65 179.411 404.357 175.059C406.456 174.596 408.614 174.851 410.573 175.736L922.686 407.132L922.787 407.094C882.391 387.869 843.827 369.471 807.279 352C750.192 324.71 698.028 299.681 651.5 277.296C647.967 275.596 644.467 273.912 641 272.243V271.5L638 270.5L641.5 269V266L627.5 260V256.5L628.5 256L630 253L632 251V248.5L632.5 247.5V245.5L632 243L631.5 242L630.5 239.5L626 235L623.5 233.5L621 232.5L617.5 232H614.5L611.5 233L608 235L605.5 237.5L604 240L604.5 232.5V198.5L605 131L570.5 115.5V32L498 0L426 28.5V56.5L364 29L291 51.5L291.5 145.5L285.5 143V137L284.5 136L284 133L282.5 130.5V129L280.5 127.5L279.5 129.5L278 133L277.5 137L275.5 138L275 140L274.5 138.5L264 135.5H262.5L263 122L264.5 120.5V117.5L264 115.5L263.5 115V112L262.5 110L259.5 109.5V104L259 99.5V96.5L257 94V87H255L253.5 99L253 101.5L251.5 105.5L251 109L248 108V93.5L249 92.5V85L247.5 81.5L241 79.5H238.5L236.5 78.5L234.5 77V74L240 65.5L239.5 64.5L234 63.5L237.5 57.5L237 56.5L234 56L229.5 18L233 16L235.5 13.5L237 11.5L237.5 9V6L235.5 3.5L232 2.5L228 3L224.5 5L222 7L220.5 10.5L220 13.5L220.5 16L222 17.5L224.5 18.5H228.5L226 56L222.5 57.5V58.5L225.5 64L222 64.5L220 65.5V67L225 75V76.5L223 78.5L219.5 80.5L219 80L212 83L209 86L209.5 89V91.5L210 110H207.5V108.5L205.5 107.5V98L201.5 88.5L198.5 97L198 108.5L195 109L195.5 114H192L193 118L190.5 120L194 121.5V140.303L190 141.5V144.5L181 146.5V144.5L179.5 143.5L179 141.5L176.5 138L176 135.5L174.5 134.5L173 136V138.5L169.5 142L170 144.5L167.5 145L166.5 147.5L164.5 148V151.5L161 152.5V153L163.5 156L165.5 156.5L165 212L158 214.5L157.5 228L140.5 233V225.5L130.5 222V213L126 211.5L122.5 209L120 207.5L119 207L118 201L117 197.5V195L117.5 194.5V193.5L116.5 192.5V191H115V193L114 194L114.5 195V197.5L111.5 207.5L108 209.5L107 211L106.5 212L103 214V222.5L95 225V229L90.5 230L91 233L92.5 234L91.5 241.5L82 244.5L81 241.5L79.5 237.5L78 235.5L77 232.5L76 233L75.5 236L71 244L70.5 245V253L69 254L70 259.5L74.5 261.5L75 274.924L7.07761 299.812C1.38968 301.896 -0.770177 307.837 0.820747 312.75C1.19342 309.085 3.46424 305.594 7.53367 304.088Z" fill="white" fill-opacity="0.17" style="mix-blend-mode:overlay"></path> <path d="M807.279 352V313L772 297.5L739.5 310.5V282.5L694 261.5L651.5 277.296C698.028 299.681 750.192 324.71 807.279 352Z" fill="#791C99" style="mix-blend-mode:color"></path> <path d="M807.279 352V313L772 297.5L739.5 310.5V282.5L694 261.5L651.5 277.296C698.028 299.681 750.192 324.71 807.279 352Z" fill="white" fill-opacity="0.17" style="mix-blend-mode:overlay"></path> </svg>