<svg xmlns="http://www.w3.org/2000/svg" width="1297" height="542" viewBox="0 0 1297 542" fill="none"> <path d="M770.5 75.3956C781.845 73.4963 793.593 75.0113 804.2 79.8877L873.618 111.801L874.5 110.5L875.5 111H877.5L879 110.5L880.5 109.5L881 108.5L881.5 109.5L884.5 110.5L886.5 109.5L888 108L889.5 108.5L891 108L892.5 107L894 105V103.5L897 102.5L898 100.5V96.5L897 95L895 94L893.5 93.5V93L893 91L892.5 89.5L891 88L888 87.5L887.5 85.5L885.5 83.5L883 82.5H879L877 79.5L875 78L872.5 77.5L870.5 78L869.5 78.5L869 77.5L866.5 76L864.5 75.5L862 76L860 77H859.5L857.5 76.5H855.5L853.5 77.5L852 79L851.5 80.5L850 82H849.5L847 83L845.5 84.5L845 86H842.5L842 84L841 82.5L841.5 82L842.5 79L843.5 78.5L845 77.5L846.5 76L847 74V71L846 69L844 67.5L841.5 67V65.5L841 64L839.5 61.5L837.5 60.5H835V59.5L834 57.5L832.5 55.5L830 54.5L827 54L824.5 54.5L824 52.5L822.5 51L820.5 49.5L818 48.5L815 49L813.5 49.5L811 47.5L808.5 46.5H806L803.5 47L802.5 48L801 47H798.5L796 47.5L794 49L793 50.5L792.5 52L791 53.5L789 54L787 55L785.5 56.5L784.5 58.5L783 58L780.5 58.5L778 59.5L776 61L775.5 63L774 65V67L774.5 68.5L772.5 69L771 70.5L770 73.5L770.5 75.3956Z" fill="#508F2A" style="mix-blend-mode:color"></path> <path d="M770.5 75.3956C781.845 73.4963 793.593 75.0113 804.2 79.8877L873.618 111.801L874.5 110.5L875.5 111H877.5L879 110.5L880.5 109.5L881 108.5L881.5 109.5L884.5 110.5L886.5 109.5L888 108L889.5 108.5L891 108L892.5 107L894 105V103.5L897 102.5L898 100.5V96.5L897 95L895 94L893.5 93.5V93L893 91L892.5 89.5L891 88L888 87.5L887.5 85.5L885.5 83.5L883 82.5H879L877 79.5L875 78L872.5 77.5L870.5 78L869.5 78.5L869 77.5L866.5 76L864.5 75.5L862 76L860 77H859.5L857.5 76.5H855.5L853.5 77.5L852 79L851.5 80.5L850 82H849.5L847 83L845.5 84.5L845 86H842.5L842 84L841 82.5L841.5 82L842.5 79L843.5 78.5L845 77.5L846.5 76L847 74V71L846 69L844 67.5L841.5 67V65.5L841 64L839.5 61.5L837.5 60.5H835V59.5L834 57.5L832.5 55.5L830 54.5L827 54L824.5 54.5L824 52.5L822.5 51L820.5 49.5L818 48.5L815 49L813.5 49.5L811 47.5L808.5 46.5H806L803.5 47L802.5 48L801 47H798.5L796 47.5L794 49L793 50.5L792.5 52L791 53.5L789 54L787 55L785.5 56.5L784.5 58.5L783 58L780.5 58.5L778 59.5L776 61L775.5 63L774 65V67L774.5 68.5L772.5 69L771 70.5L770 73.5L770.5 75.3956Z" fill="white" fill-opacity="0.17" style="mix-blend-mode:overlay"></path> <path d="M991.974 166.212L989 50L990.5 52.5L1010 67H1011L1012.5 66.5V65L1010.5 63L998 47.5L997 46L993 43.5L993.5 40.5L993 37.5L991.5 35L989.5 33L987 32V15.5L987.5 1.5L986.5 0L984.5 1.5L983 11.5L981 29.5L982.5 32.5L983 35L980.5 36L978 38.5L977.5 39.5L974 41.5L957 56.5L958 59L978 50.5L978.5 50L980 45H980.5L983.5 45.5H985.5L982.525 161.869L968.5 155.421L893.5 120.941L873.618 111.801L804.2 79.8877C793.593 75.0113 781.845 73.4963 770.5 75.3956C769.664 75.5356 768.831 75.694 768 75.871C765.144 76.4795 762.321 77.3074 759.556 78.3553L718.5 93.9163L682.661 107.5L625 129.355L571.5 149.632L465.995 189.621C452.929 194.573 438.462 194.328 425.572 188.937L403 179.498L353.676 158.871L248 198.532L73.5 264.025L7.96598 288.621C2.97538 290.494 0.735484 295.339 1.38671 299.817C-0.0872588 304.403 1.63874 309.918 6.76137 312.356L482.004 538.539C490.249 542.462 499.751 542.791 508.248 539.447L659.541 479.889C667.313 476.829 675.986 477.005 683.628 480.378L770.608 518.771C778.391 522.207 787.219 522.415 795.155 519.349L1290.28 328.083C1295.75 325.971 1297.85 320.3 1296.46 315.507C1297.58 311.018 1295.72 305.853 1290.77 303.576L1265 291.729L1255.5 287.362L1191.98 258.16L1189 141L1193 144.5L1217 151L1219 149.5L1218 148L1216 147.5L1199 137.5L1197 136L1193.5 135L1192 131L1190 128.5L1186.5 127L1182.5 128V126L1181 121L1177 110L1172 97.5L1171 97L1169.5 98.5L1176 126.5L1180 130.5V132L1178 134V136.5L1176.5 137L1173.5 141L1163.5 160L1165.5 162L1181 147V141L1184 141.5H1185.5L1182.53 253.816L1124.9 227.322L1122 114L1123.5 116.5L1143 131H1144L1145.5 130.5V129L1143.5 127L1131 111.5L1130 110L1126 107.5L1126.5 104.5L1126 101.5L1124.5 99L1122.5 97L1120 96V79.5L1120.5 65.5L1119.5 64L1117.5 65.5L1116 75.5L1114 93.5L1115.5 96.5L1116 99L1113.5 100L1111 102.5L1110.5 103.5L1107 105.5L1090 120.5L1091 123L1111 114.5L1111.5 114L1113 109H1113.5L1116.5 109.5H1118.5L1115.6 223.045L1058.48 196.788L1055.5 78L1059.5 81.5L1083.5 88L1085.5 86.5L1084.5 85L1082.5 84.5L1065.5 74.5L1063.5 73L1060 72L1058.5 68L1056.5 65.5L1053 64L1049 65V63L1047.5 58L1043.5 47L1038.5 34.5L1037.5 34L1036 35.5L1042.5 63.5L1046.5 67.5V69L1044.5 71V73.5L1043 74L1040 78L1030 97L1032 99L1047.5 84V78L1050.5 78.5H1052L1049.52 192.667L991.974 166.212Z" fill="#508F2A" style="mix-blend-mode:color"></path> <path d="M991.974 166.212L989 50L990.5 52.5L1010 67H1011L1012.5 66.5V65L1010.5 63L998 47.5L997 46L993 43.5L993.5 40.5L993 37.5L991.5 35L989.5 33L987 32V15.5L987.5 1.5L986.5 0L984.5 1.5L983 11.5L981 29.5L982.5 32.5L983 35L980.5 36L978 38.5L977.5 39.5L974 41.5L957 56.5L958 59L978 50.5L978.5 50L980 45H980.5L983.5 45.5H985.5L982.525 161.869L968.5 155.421L893.5 120.941L873.618 111.801L804.2 79.8877C793.593 75.0113 781.845 73.4963 770.5 75.3956C769.664 75.5356 768.831 75.694 768 75.871C765.144 76.4795 762.321 77.3074 759.556 78.3553L718.5 93.9163L682.661 107.5L625 129.355L571.5 149.632L465.995 189.621C452.929 194.573 438.462 194.328 425.572 188.937L403 179.498L353.676 158.871L248 198.532L73.5 264.025L7.96598 288.621C2.97538 290.494 0.735484 295.339 1.38671 299.817C-0.0872588 304.403 1.63874 309.918 6.76137 312.356L482.004 538.539C490.249 542.462 499.751 542.791 508.248 539.447L659.541 479.889C667.313 476.829 675.986 477.005 683.628 480.378L770.608 518.771C778.391 522.207 787.219 522.415 795.155 519.349L1290.28 328.083C1295.75 325.971 1297.85 320.3 1296.46 315.507C1297.58 311.018 1295.72 305.853 1290.77 303.576L1265 291.729L1255.5 287.362L1191.98 258.16L1189 141L1193 144.5L1217 151L1219 149.5L1218 148L1216 147.5L1199 137.5L1197 136L1193.5 135L1192 131L1190 128.5L1186.5 127L1182.5 128V126L1181 121L1177 110L1172 97.5L1171 97L1169.5 98.5L1176 126.5L1180 130.5V132L1178 134V136.5L1176.5 137L1173.5 141L1163.5 160L1165.5 162L1181 147V141L1184 141.5H1185.5L1182.53 253.816L1124.9 227.322L1122 114L1123.5 116.5L1143 131H1144L1145.5 130.5V129L1143.5 127L1131 111.5L1130 110L1126 107.5L1126.5 104.5L1126 101.5L1124.5 99L1122.5 97L1120 96V79.5L1120.5 65.5L1119.5 64L1117.5 65.5L1116 75.5L1114 93.5L1115.5 96.5L1116 99L1113.5 100L1111 102.5L1110.5 103.5L1107 105.5L1090 120.5L1091 123L1111 114.5L1111.5 114L1113 109H1113.5L1116.5 109.5H1118.5L1115.6 223.045L1058.48 196.788L1055.5 78L1059.5 81.5L1083.5 88L1085.5 86.5L1084.5 85L1082.5 84.5L1065.5 74.5L1063.5 73L1060 72L1058.5 68L1056.5 65.5L1053 64L1049 65V63L1047.5 58L1043.5 47L1038.5 34.5L1037.5 34L1036 35.5L1042.5 63.5L1046.5 67.5V69L1044.5 71V73.5L1043 74L1040 78L1030 97L1032 99L1047.5 84V78L1050.5 78.5H1052L1049.52 192.667L991.974 166.212Z" fill="white" fill-opacity="0.17" style="mix-blend-mode:overlay"></path> <path d="M625 129.355L682.661 107.5L674.5 103L625 122.5V129.355Z" fill="#508F2A" style="mix-blend-mode:color"></path> <path d="M625 129.355L682.661 107.5L674.5 103L625 122.5V129.355Z" fill="white" fill-opacity="0.17" style="mix-blend-mode:overlay"></path> <path d="M718.5 93.9163L759.556 78.3553C762.321 77.3074 765.144 76.4795 768 75.871L766.5 75H764.5L762 75.5L761.5 73L760 72L758 70.5H755.5L753 71L752 70L750.5 69L748 68.5L745.5 69L744.5 70L741.5 69L739 69.5L737 71L736 73L734.5 74.5L732 75L730 77L729.5 78.5L728 78L725 78.5L722.5 80.5L722 82L721 83L720.5 85L721 86.5L719 87.5L717.5 89.5V92L718.5 93.9163Z" fill="#508F2A" style="mix-blend-mode:color"></path> <path d="M718.5 93.9163L759.556 78.3553C762.321 77.3074 765.144 76.4795 768 75.871L766.5 75H764.5L762 75.5L761.5 73L760 72L758 70.5H755.5L753 71L752 70L750.5 69L748 68.5L745.5 69L744.5 70L741.5 69L739 69.5L737 71L736 73L734.5 74.5L732 75L730 77L729.5 78.5L728 78L725 78.5L722.5 80.5L722 82L721 83L720.5 85L721 86.5L719 87.5L717.5 89.5V92L718.5 93.9163Z" fill="white" fill-opacity="0.17" style="mix-blend-mode:overlay"></path> <path d="M403 179.498L425.572 188.937C438.462 194.328 452.929 194.573 465.995 189.621L571.5 149.632L567 146L560 143L554 141L547.5 140L533 138L523.5 137.5L508.5 138.5L502.5 140L495.5 142.5L414.5 173.5V175L403 179.498Z" fill="#508F2A" style="mix-blend-mode:color"></path> <path d="M403 179.498L425.572 188.937C438.462 194.328 452.929 194.573 465.995 189.621L571.5 149.632L567 146L560 143L554 141L547.5 140L533 138L523.5 137.5L508.5 138.5L502.5 140L495.5 142.5L414.5 173.5V175L403 179.498Z" fill="white" fill-opacity="0.17" style="mix-blend-mode:overlay"></path> <path d="M73.5 264.025L248 198.532L232.5 191.5V188L199.5 173.5L165.5 187.5V190.5L131 204.5V222L138.5 225.5L78.5 248.5V249L79.5 249.5V256.5L73.5 258.5V264.025Z" fill="#508F2A" style="mix-blend-mode:color"></path> <path d="M73.5 264.025L248 198.532L232.5 191.5V188L199.5 173.5L165.5 187.5V190.5L131 204.5V222L138.5 225.5L78.5 248.5V249L79.5 249.5V256.5L73.5 258.5V264.025Z" fill="white" fill-opacity="0.17" style="mix-blend-mode:overlay"></path> <path d="M1255.5 287.362L1265 291.729L1262 174.5L1263.5 177L1283 191.5H1284L1285.5 191V189.5L1283.5 187.5L1271 172L1270 170.5L1266 168L1266.5 165L1266 162L1264.5 159.5L1262.5 157.5L1260 156.5V140L1260.5 126L1259.5 124.5L1257.5 126L1256 136L1254 154L1255.5 157L1256 159.5L1253.5 160.5L1251 163L1250.5 164L1247 166L1230 181L1231 183.5L1251 175L1251.5 174.5L1253 169.5H1253.5L1256.5 170H1258.5L1255.5 287.362Z" fill="#508F2A" style="mix-blend-mode:color"></path> <path d="M1255.5 287.362L1265 291.729L1262 174.5L1263.5 177L1283 191.5H1284L1285.5 191V189.5L1283.5 187.5L1271 172L1270 170.5L1266 168L1266.5 165L1266 162L1264.5 159.5L1262.5 157.5L1260 156.5V140L1260.5 126L1259.5 124.5L1257.5 126L1256 136L1254 154L1255.5 157L1256 159.5L1253.5 160.5L1251 163L1250.5 164L1247 166L1230 181L1231 183.5L1251 175L1251.5 174.5L1253 169.5H1253.5L1256.5 170H1258.5L1255.5 287.362Z" fill="white" fill-opacity="0.17" style="mix-blend-mode:overlay"></path> </svg>