<svg xmlns="http://www.w3.org/2000/svg" width="2149" height="734" viewBox="0 0 2149 734" fill="none"> <path d="M1894 263.975L2055.04 341.941C2137.12 382.918 2159.97 428.462 2143.53 473.233C2117.07 627.01 1596.12 770.683 1403.8 699.301C1233.11 635.95 1159.13 665.656 1083.14 696.17C1051.39 708.922 1019.28 721.815 979.614 728.116C845.038 749.495 748.839 694.738 748.839 694.738L6.57109 336.467C1.32995 333.938 -0.334018 328.16 1.40346 323.503C0.703884 319.034 2.89564 314.172 7.84478 312.243L15.5004 309.259V298H15.0004V294.5H17.5004L19.0004 296.5V303.5L23.5004 306L23.6837 306.07L39.0004 300.101V298.5H41.0004L41.5004 299L41.6994 299.05L130 264.638V220.5L133 218L136.5 215L139.5 213L145 211L153 209L165.5 208.5L172 209L178 210.5L182.5 211.5L191.5 215.5L196 219L199 223V237.5L199.179 237.679L312.994 193.325L312 192L334 177.5L341 174V167L339.5 166V164.5L345.5 161.5L353 163.5V169.5L391.5 154V144.5L398 141.5L404 143.5V149.5L409 149L412.917 154.385L490.851 124.013C501.128 120.008 512.578 120.268 522.663 124.734L547 135.511V131L552.5 128.5L559.5 131.5V141.046L572.053 146.605L575 145.5L578 146.5V149.239L595.526 157H599.5V158.76L615.605 165.891L640.5 157L699 168L702 171L702.047 171.078L953 75.5814V70.9998L945.5 67.4998L944 66.4998L966.5 32.4998L969 29.4998L993 5.49982L1021.5 -0.000183105L1116.5 38.4998L1203.5 73.4998L1222 81.4998L1236.5 87.4998L1236 89.4998L1228.5 87.4998V103L1228.44 103.295L1533.61 251.705L1604 208.5V207.5L1610 203.5L1613 202L1612.5 197.5L1614.5 194.5H1617.5L1622.5 196.5L1756 182.5H1758.5L1775 187H1777V198.5L1764.06 202.889C1764.68 202.974 1765.3 203.077 1765.92 203.197L1797 191.5L1895 234.5V236.5L1894 237V252L1896.5 253.5V255.5L1894 256.158V263.975Z" fill="#FFA14A" style="mix-blend-mode:color"></path> <path d="M1894 263.975L2055.04 341.941C2137.12 382.918 2159.97 428.462 2143.53 473.233C2117.07 627.01 1596.12 770.683 1403.8 699.301C1233.11 635.95 1159.13 665.656 1083.14 696.17C1051.39 708.922 1019.28 721.815 979.614 728.116C845.038 749.495 748.839 694.738 748.839 694.738L6.57109 336.467C1.32995 333.938 -0.334018 328.16 1.40346 323.503C0.703884 319.034 2.89564 314.172 7.84478 312.243L15.5004 309.259V298H15.0004V294.5H17.5004L19.0004 296.5V303.5L23.5004 306L23.6837 306.07L39.0004 300.101V298.5H41.0004L41.5004 299L41.6994 299.05L130 264.638V220.5L133 218L136.5 215L139.5 213L145 211L153 209L165.5 208.5L172 209L178 210.5L182.5 211.5L191.5 215.5L196 219L199 223V237.5L199.179 237.679L312.994 193.325L312 192L334 177.5L341 174V167L339.5 166V164.5L345.5 161.5L353 163.5V169.5L391.5 154V144.5L398 141.5L404 143.5V149.5L409 149L412.917 154.385L490.851 124.013C501.128 120.008 512.578 120.268 522.663 124.734L547 135.511V131L552.5 128.5L559.5 131.5V141.046L572.053 146.605L575 145.5L578 146.5V149.239L595.526 157H599.5V158.76L615.605 165.891L640.5 157L699 168L702 171L702.047 171.078L953 75.5814V70.9998L945.5 67.4998L944 66.4998L966.5 32.4998L969 29.4998L993 5.49982L1021.5 -0.000183105L1116.5 38.4998L1203.5 73.4998L1222 81.4998L1236.5 87.4998L1236 89.4998L1228.5 87.4998V103L1228.44 103.295L1533.61 251.705L1604 208.5V207.5L1610 203.5L1613 202L1612.5 197.5L1614.5 194.5H1617.5L1622.5 196.5L1756 182.5H1758.5L1775 187H1777V198.5L1764.06 202.889C1764.68 202.974 1765.3 203.077 1765.92 203.197L1797 191.5L1895 234.5V236.5L1894 237V252L1896.5 253.5V255.5L1894 256.158V263.975Z" fill="white" fill-opacity="0.17" style="mix-blend-mode:overlay"></path> </svg>