<svg width="1054" height="465" viewBox="0 0 1054 465" fill="none" xmlns="http://www.w3.org/2000/svg"> <path d="M962.109 131.194L964.5 124.5L968 110.5L970 99.4997L970.5 92.9997L971 84.4997L952 72.4997V55.4997L891.5 26.4997L830 49.9997L830.491 68.6576L797.5 52.9824V48.9997L798.5 48.4997V42.9997H797.5V35.4997H798V14.2344L785 7.99951H781L778.5 8.49951L775.5 9.49951L759 15.9995L738.5 7.49951L736.5 6.99951L735 6.49951H732.5L729.5 7.49951L723.5 9.99951L703.5 1.49951L700.5 0.499512H698.5L696.5 1.49951L693 2.99951L669.5 11.4995L668 13.5L667.5 14.5V17.1467L610.23 38.5H605.5L597.5 41.5L590 44.5L589 45.5V46.4161L556.093 58.6858L556 58.5L535 48.5L498 31L473.5 41.5L438 56.5L412.5 67.5V112.226L396.401 118.228L391.5 116L340.5 93L338.5 92.5L337 93L335 94L233.5 135.5V178.967L7.4129 263.265C1.96316 265.297 -0.218809 270.874 1.0567 275.659C-0.163336 280.149 1.61974 285.382 6.56419 287.737L365.692 458.821C380.839 466.037 398.352 466.422 413.801 459.879L1044.1 192.937C1045.92 192.169 1047.34 191.007 1048.37 189.622C1054.99 185.439 1054.7 175.19 1047.21 171.628L962.109 131.194Z" fill="#F26666" style="mix-blend-mode:color"></path> </svg>