<svg xmlns="http://www.w3.org/2000/svg" width="1145" height="605" viewBox="0 0 1145 605" fill="none"> <path fill-rule="evenodd" clip-rule="evenodd" d="M1143.5 290V291.128C1146.27 296.196 1144.49 303.297 1138.2 305.748L387.825 598.122C365.398 606.86 340.357 605.944 318.628 595.591L5.92318 446.594C1.08111 444.287 -0.741467 439.196 0.353838 434.755C-0.796335 430.106 1.28495 424.764 6.48153 422.655L22.5002 416.155V414.5L14.0002 410.5L13.5002 403.5L82.0002 378.5L99.0002 385L99.0978 385.073L154 362.795V353.5L151.5 352L241 312.5V303.5L236 301L236.5 300L245.5 296.5V283L243 282L243.5 280.5L249.5 278.5L257 266L261.5 264.5V262.5L259.5 261L263 253.5V243H264V253.5L267 260V261L265.5 262.5V264.5L269 266L278 277.5L284.5 281L285 281.5L281.5 283.5V293.5L293.5 301L287.5 303.5V305.5L291.925 306.827L317.989 296.251L317.5 159.5L366.5 141L396 154.5L394.5 97.0002V85.0002L394 84.0002V82.0002L468.5 51.5002L537 82.0002L536.5 114.5L561 105.5L596.5 125.5L595.5 188.5L602 191L603.5 192L658 175L748.5 215.5V217.5L773.5 207.5V205.5L882 163L897 170V104L877 94.5002L876.5 91.0002H877.5V79.5002L878 78.5002L897 71.5002V69.5002L823.5 38.5002V45.5002L802 54.0002L792 49.0002V27.0002L794.5 26.5002L767.5 15.5002V3.50018L769.5 3.49969L785 -0.000305176L786 0.500183L863.5 14.0002L915.5 23.5002L920 22.0002H922.5L923.5 23.0002L925 25.0002L924.5 29.4997L932.5 35.4997L933 37.0002L1011 92.0002L1013 92.5002L1014.5 94.0002L1032.5 101.5L1064 115L1067.5 116H1068.5L1069.5 117L1071.5 119.5L1083 134V136.5L1072.5 143.5L1071.5 143L1071 169.5L1072.5 170.5V175L1070.5 176V181L1069.5 182L1070 183V184L1069.5 191.5L1069 192.5L1071 194V197.5L1076 195.5L1081 198V204L1070.5 209L1112.5 227V229L1111.5 229.5V243L1113.5 244L1114 246L1111.5 246.5V260.5L1114 262V263.5L1112 264.5V268.5L1133.5 278V281.5L1140 284.5L1142 287L1143.5 290ZM1064.5 170.5V139.5L943.5 87.5002V91.5002L947 90.5002V102.5L936 107.5V188L977.5 207L1025 189.5L1056.5 203L1063.5 199V194.5L1064.5 193L1065 192L1065.5 188.5L1065 187V184.5L1065.5 182L1065 181V176L1063 175V171L1064.5 170.5Z" fill="#E6C552" style="mix-blend-mode:color"></path> <path fill-rule="evenodd" clip-rule="evenodd" d="M1143.5 290V291.128C1146.27 296.196 1144.49 303.297 1138.2 305.748L387.825 598.122C365.398 606.86 340.357 605.944 318.628 595.591L5.92318 446.594C1.08111 444.287 -0.741467 439.196 0.353838 434.755C-0.796335 430.106 1.28495 424.764 6.48153 422.655L22.5002 416.155V414.5L14.0002 410.5L13.5002 403.5L82.0002 378.5L99.0002 385L99.0978 385.073L154 362.795V353.5L151.5 352L241 312.5V303.5L236 301L236.5 300L245.5 296.5V283L243 282L243.5 280.5L249.5 278.5L257 266L261.5 264.5V262.5L259.5 261L263 253.5V243H264V253.5L267 260V261L265.5 262.5V264.5L269 266L278 277.5L284.5 281L285 281.5L281.5 283.5V293.5L293.5 301L287.5 303.5V305.5L291.925 306.827L317.989 296.251L317.5 159.5L366.5 141L396 154.5L394.5 97.0002V85.0002L394 84.0002V82.0002L468.5 51.5002L537 82.0002L536.5 114.5L561 105.5L596.5 125.5L595.5 188.5L602 191L603.5 192L658 175L748.5 215.5V217.5L773.5 207.5V205.5L882 163L897 170V104L877 94.5002L876.5 91.0002H877.5V79.5002L878 78.5002L897 71.5002V69.5002L823.5 38.5002V45.5002L802 54.0002L792 49.0002V27.0002L794.5 26.5002L767.5 15.5002V3.50018L769.5 3.49969L785 -0.000305176L786 0.500183L863.5 14.0002L915.5 23.5002L920 22.0002H922.5L923.5 23.0002L925 25.0002L924.5 29.4997L932.5 35.4997L933 37.0002L1011 92.0002L1013 92.5002L1014.5 94.0002L1032.5 101.5L1064 115L1067.5 116H1068.5L1069.5 117L1071.5 119.5L1083 134V136.5L1072.5 143.5L1071.5 143L1071 169.5L1072.5 170.5V175L1070.5 176V181L1069.5 182L1070 183V184L1069.5 191.5L1069 192.5L1071 194V197.5L1076 195.5L1081 198V204L1070.5 209L1112.5 227V229L1111.5 229.5V243L1113.5 244L1114 246L1111.5 246.5V260.5L1114 262V263.5L1112 264.5V268.5L1133.5 278V281.5L1140 284.5L1142 287L1143.5 290ZM1064.5 170.5V139.5L943.5 87.5002V91.5002L947 90.5002V102.5L936 107.5V188L977.5 207L1025 189.5L1056.5 203L1063.5 199V194.5L1064.5 193L1065 192L1065.5 188.5L1065 187V184.5L1065.5 182L1065 181V176L1063 175V171L1064.5 170.5Z" fill="white" fill-opacity="0.12" style="mix-blend-mode:overlay"></path> </svg>