<svg xmlns="http://www.w3.org/2000/svg" width="1318" height="875" viewBox="0 0 1318 875" fill="none"> <path d="M107.598 635.801L77 621.5L80.5 619L-1.5 580.5V302L34.5 288.5L46 294L44 179.5L118 148.5L186.5 179L185 278L200 271.5L198 46.5L305 13L307.5 12L312.5 14L391 48.5L389.5 19L439.5 0.5L488.5 28L487.5 100L555 79L584.5 92L616.5 80.5L662 101V161L671 165V61L723.5 40.5L776 63.5V197.5L784 201.5L782 142.5L857 111L925.5 142.5L923 298.5L962 317V430.222L968 432.98V413.5L966.5 411.5L966 409.5L967 407L968.5 406.5V400.5L969.5 398.5L972.5 397.5H981.5L984 398L987 399.5L987.5 401V407L989.5 408.5L990 410.5L989 412.5V442.635L1310.31 590.35C1314.65 592.343 1316.61 596.551 1316.28 600.581C1318.52 605.593 1316.58 612.149 1310.61 614.471L657.969 868.56C635.508 877.304 610.43 876.367 588.686 865.969L107.456 635.858L107.598 635.801Z" fill="#8769C8" style="mix-blend-mode:color"></path> <path d="M107.598 635.801L77 621.5L80.5 619L-1.5 580.5V302L34.5 288.5L46 294L44 179.5L118 148.5L186.5 179L185 278L200 271.5L198 46.5L305 13L307.5 12L312.5 14L391 48.5L389.5 19L439.5 0.5L488.5 28L487.5 100L555 79L584.5 92L616.5 80.5L662 101V161L671 165V61L723.5 40.5L776 63.5V197.5L784 201.5L782 142.5L857 111L925.5 142.5L923 298.5L962 317V430.222L968 432.98V413.5L966.5 411.5L966 409.5L967 407L968.5 406.5V400.5L969.5 398.5L972.5 397.5H981.5L984 398L987 399.5L987.5 401V407L989.5 408.5L990 410.5L989 412.5V442.635L1310.31 590.35C1314.65 592.343 1316.61 596.551 1316.28 600.581C1318.52 605.593 1316.58 612.149 1310.61 614.471L657.969 868.56C635.508 877.304 610.43 876.367 588.686 865.969L107.456 635.858L107.598 635.801Z" fill="white" fill-opacity="0.12" style="mix-blend-mode:overlay"></path> </svg>