<svg xmlns="http://www.w3.org/2000/svg" width="1213" height="532" viewBox="0 0 1213 532" fill="none"> <path d="M1160.83 225.656L1160.5 225L1161 223L1160 221L1159.5 219.5L1158.5 218.5L1157.5 217L1155.5 215L1154.5 213.5L1152 212L1150.5 210.5L1149.5 211L1148.5 210L1148 210.5L1146.5 209.5L1144 209L1143.5 208.5L1142 209L1139.5 209.5H1138L1137 210L1136.5 210.5L1135.5 211H1134L1133.5 212.5L1132.5 212L1131.84 212.33L1047 173.326V161L1055 158L1058.5 156V151L1056 150L1052 148L1048 146.5L1048.5 132.5L922.5 77.4999L877.5 95.403L815 66.67V66.4999L814.5 62.4999L814 59.4999L813.5 58.4999L809.5 51.9999L808 48.4999L806.5 45.4999L804.5 42.4999L801 37.4999L798 33.9999L794 28.9999L789 23.9999L785 19.4999L781 15.9999L773 10.4999L764.5 5.99988L758.5 3.49988L749 0.999878L746.5 0.499878L743 -0.00012207H731L728.5 0.499878L724.5 0.999878L721.5 1.99988L714.5 3.99988L710 5.99988L704.5 8.49988L699.5 11.4999L695 14.4999L691.161 17.8593C685.876 18.282 680.628 19.4332 675.572 21.3186L649.82 30.9204L628.5 21.4999L586 38.4999L585.5 37.9999L585 34.9999L584.5 32.9999L583 30.9999L580 30.4999L576.5 30.9999V28.4999L575.5 26.4999L574 24.9999L571.5 23.9999H566.5L564.5 25.4999L564 25.9999V24.4999L562 22.9999L560 21.9999L557 21.4999L555 21.9999L553 22.9999L552 25.9999L551.5 26.9999L548.5 23.9999L546.5 23.4999L544.5 24.4999L542.5 26.4999L540.5 30.4999V31.4999L540 31.9999L538 30.9999H535L533.5 31.9999L532.5 32.9999L531.5 35.9999V37.4999L530.5 38.4999L530 39.4999L529.5 40.9999L530 42.9999L528.5 42.4999L526.5 42.9999L523.5 45.9999L522 48.4999L521.5 50.4999L522.5 52.9999L523 54.4999L521.5 54.9999L520 56.4999L519 58.9999L519.5 62.9999L520.5 65.4999L522 67.4999L523 67.9999L522 70.4999V73.9999L523 75.4999L524.971 77.4712L500.4 86.633L500 86.4999L456.5 68.9999L319.5 119.5V120.5H320V130.339L319.5 130.5V132L320 132.5V153.896L272.061 171.771L271 171L269.5 172L268.5 171L267 170.5L266 171.5H264L263.5 172L262.5 171.5L261.5 172H260.5L259.5 173H258.5L258 173.5L257 173L256 174L255 173.5L254 174.5V175H252.5L251.5 176V177H250.5L249.5 176.5H248.5L248 177.5V178.5L247.5 178H247L246 178.5V179L245.5 179.5L245 180.5L244 180H243L242.5 180.5L243 181.5L241.5 182L241.056 183.331L228.51 188.009L228.5 188L229 187.5V185L229.5 184V183L229 182V180L228.5 179V178H228V176.5L226.5 175.5L224.5 172.5L220.5 169.5H220L219.5 168.5L218.5 168H217.5L216.5 167.5H216L214 166.5H213L212 166H211L210 166.5H209L208 167H206L204.5 168H204L202 168.5L201.5 169.5H200L199.5 170.5L200 171H198.5L195.5 174V174.5H195L194 176L193.5 176.5V177.5L193 178L192.5 179L193 179.5L192 180V182L191.5 183V184L192 185L191.5 186.5L192 187V188.5L193 189.5L195 193.5L195.5 193L196.5 194L197 195L198 195.5L199 196.5L200 196L201 197H202.5L202.231 197.808L175.438 207.798L174.974 207.338L175.487 206.831V204.292L176 203.277V202.261L175.487 201.246V199.215L174.974 198.2V197.184H174.461V195.661L172.921 194.646L170.868 191.6L166.763 188.554H166.25L165.737 187.538L164.711 187.031H163.684L162.658 186.523H162.145L160.092 185.508H159.066L158.04 185H157.013L155.987 185.508H154.961L153.934 186.015H151.882L150.342 187.031H149.829L147.776 187.538L147.263 188.554H145.724L145.211 189.569L145.724 190.077H144.184L141.105 193.123V193.631H140.592L139.566 195.154L139.053 195.661V196.677L138.54 197.184L138.026 198.2L138.54 198.708L137.513 199.215V201.246L137 202.261V203.277L137.513 204.292L137 205.815L137.513 206.323V207.846L138.54 208.861L140.592 212.923L141.105 212.415L142.132 213.431L142.645 214.446L143.671 214.954L144.697 215.969L145.724 215.461L146.75 216.477H148.29L147.776 218L147.754 218.12L115.487 230.151V229.292L116 228.277V227.261L115.487 226.246V224.215L114.974 223.2V222.184H114.461V220.661L112.921 219.646L110.868 216.6L106.763 213.554H106.25L105.737 212.538L104.711 212.031H103.684L102.658 211.523H102.145L100.092 210.508H99.0658L98.0395 210H97.0132L95.9869 210.508H94.9606L93.9343 211.015H91.8816L90.3422 212.031H89.829L87.7764 212.538L87.2632 213.554H85.7237L85.2106 214.569L85.7237 215.077H84.1843L81.1053 218.123V218.631H80.5922L79.5658 220.154L79.0527 220.661V221.677L78.5395 222.184L78.0264 223.2L78.5395 223.708L77.5132 224.215V226.246L77.0001 227.261V228.277L77.5132 229.292L77.0001 230.815L77.5132 231.323V232.846L78.5395 233.861L80.5922 237.923L81.1053 237.415L82.1316 238.431L82.6448 239.446L83.6711 239.954L84.6974 240.969L85.7237 240.461L86.3014 241.033L59.0001 251.212V250.261L58.4869 249.246V247.215L57.9737 246.2V245.184H57.4606V243.661L55.9211 242.646L53.8685 239.6L49.7632 236.554H49.2501L48.7369 235.538L47.7106 235.031H46.6843L45.658 234.523H45.1448L43.0922 233.508H42.0658L41.0395 233H40.0132L38.9869 233.508H37.9606L36.9343 234.015H34.8816L33.3422 235.031H32.829L30.7764 235.538L30.2632 236.554H28.7237L28.2106 237.569L28.7237 238.077H27.1843L24.1053 241.123V241.631H23.5922L22.5659 243.154L22.0527 243.661V244.677L21.5395 245.184L21.0264 246.2L21.5395 246.708L20.5132 247.215V249.246L20.0001 250.261V251.277L20.5132 252.292L20.0001 253.815L20.5132 254.323V255.846L21.5395 256.861L23.5922 260.923L24.1053 260.415L25.1316 261.431L25.6448 262.446L26.6711 262.954L26.9007 263.181L7.41271 270.447C1.96656 272.478 -0.2163 278.048 1.05411 282.832C-0.171494 287.323 1.60882 292.56 6.55437 294.919L484.379 522.814C506.107 533.177 531.151 534.101 553.584 525.368L1206.28 271.26C1211.66 269.163 1213.77 263.61 1212.48 258.861C1213.67 254.341 1211.82 249.098 1206.82 246.8L1160.83 225.656Z" fill="#F15D89" style="mix-blend-mode:color"></path> <path d="M1160.83 225.656L1160.5 225L1161 223L1160 221L1159.5 219.5L1158.5 218.5L1157.5 217L1155.5 215L1154.5 213.5L1152 212L1150.5 210.5L1149.5 211L1148.5 210L1148 210.5L1146.5 209.5L1144 209L1143.5 208.5L1142 209L1139.5 209.5H1138L1137 210L1136.5 210.5L1135.5 211H1134L1133.5 212.5L1132.5 212L1131.84 212.33L1047 173.326V161L1055 158L1058.5 156V151L1056 150L1052 148L1048 146.5L1048.5 132.5L922.5 77.4999L877.5 95.403L815 66.67V66.4999L814.5 62.4999L814 59.4999L813.5 58.4999L809.5 51.9999L808 48.4999L806.5 45.4999L804.5 42.4999L801 37.4999L798 33.9999L794 28.9999L789 23.9999L785 19.4999L781 15.9999L773 10.4999L764.5 5.99988L758.5 3.49988L749 0.999878L746.5 0.499878L743 -0.00012207H731L728.5 0.499878L724.5 0.999878L721.5 1.99988L714.5 3.99988L710 5.99988L704.5 8.49988L699.5 11.4999L695 14.4999L691.161 17.8593C685.876 18.282 680.628 19.4332 675.572 21.3186L649.82 30.9204L628.5 21.4999L586 38.4999L585.5 37.9999L585 34.9999L584.5 32.9999L583 30.9999L580 30.4999L576.5 30.9999V28.4999L575.5 26.4999L574 24.9999L571.5 23.9999H566.5L564.5 25.4999L564 25.9999V24.4999L562 22.9999L560 21.9999L557 21.4999L555 21.9999L553 22.9999L552 25.9999L551.5 26.9999L548.5 23.9999L546.5 23.4999L544.5 24.4999L542.5 26.4999L540.5 30.4999V31.4999L540 31.9999L538 30.9999H535L533.5 31.9999L532.5 32.9999L531.5 35.9999V37.4999L530.5 38.4999L530 39.4999L529.5 40.9999L530 42.9999L528.5 42.4999L526.5 42.9999L523.5 45.9999L522 48.4999L521.5 50.4999L522.5 52.9999L523 54.4999L521.5 54.9999L520 56.4999L519 58.9999L519.5 62.9999L520.5 65.4999L522 67.4999L523 67.9999L522 70.4999V73.9999L523 75.4999L524.971 77.4712L500.4 86.633L500 86.4999L456.5 68.9999L319.5 119.5V120.5H320V130.339L319.5 130.5V132L320 132.5V153.896L272.061 171.771L271 171L269.5 172L268.5 171L267 170.5L266 171.5H264L263.5 172L262.5 171.5L261.5 172H260.5L259.5 173H258.5L258 173.5L257 173L256 174L255 173.5L254 174.5V175H252.5L251.5 176V177H250.5L249.5 176.5H248.5L248 177.5V178.5L247.5 178H247L246 178.5V179L245.5 179.5L245 180.5L244 180H243L242.5 180.5L243 181.5L241.5 182L241.056 183.331L228.51 188.009L228.5 188L229 187.5V185L229.5 184V183L229 182V180L228.5 179V178H228V176.5L226.5 175.5L224.5 172.5L220.5 169.5H220L219.5 168.5L218.5 168H217.5L216.5 167.5H216L214 166.5H213L212 166H211L210 166.5H209L208 167H206L204.5 168H204L202 168.5L201.5 169.5H200L199.5 170.5L200 171H198.5L195.5 174V174.5H195L194 176L193.5 176.5V177.5L193 178L192.5 179L193 179.5L192 180V182L191.5 183V184L192 185L191.5 186.5L192 187V188.5L193 189.5L195 193.5L195.5 193L196.5 194L197 195L198 195.5L199 196.5L200 196L201 197H202.5L202.231 197.808L175.438 207.798L174.974 207.338L175.487 206.831V204.292L176 203.277V202.261L175.487 201.246V199.215L174.974 198.2V197.184H174.461V195.661L172.921 194.646L170.868 191.6L166.763 188.554H166.25L165.737 187.538L164.711 187.031H163.684L162.658 186.523H162.145L160.092 185.508H159.066L158.04 185H157.013L155.987 185.508H154.961L153.934 186.015H151.882L150.342 187.031H149.829L147.776 187.538L147.263 188.554H145.724L145.211 189.569L145.724 190.077H144.184L141.105 193.123V193.631H140.592L139.566 195.154L139.053 195.661V196.677L138.54 197.184L138.026 198.2L138.54 198.708L137.513 199.215V201.246L137 202.261V203.277L137.513 204.292L137 205.815L137.513 206.323V207.846L138.54 208.861L140.592 212.923L141.105 212.415L142.132 213.431L142.645 214.446L143.671 214.954L144.697 215.969L145.724 215.461L146.75 216.477H148.29L147.776 218L147.754 218.12L115.487 230.151V229.292L116 228.277V227.261L115.487 226.246V224.215L114.974 223.2V222.184H114.461V220.661L112.921 219.646L110.868 216.6L106.763 213.554H106.25L105.737 212.538L104.711 212.031H103.684L102.658 211.523H102.145L100.092 210.508H99.0658L98.0395 210H97.0132L95.9869 210.508H94.9606L93.9343 211.015H91.8816L90.3422 212.031H89.829L87.7764 212.538L87.2632 213.554H85.7237L85.2106 214.569L85.7237 215.077H84.1843L81.1053 218.123V218.631H80.5922L79.5658 220.154L79.0527 220.661V221.677L78.5395 222.184L78.0264 223.2L78.5395 223.708L77.5132 224.215V226.246L77.0001 227.261V228.277L77.5132 229.292L77.0001 230.815L77.5132 231.323V232.846L78.5395 233.861L80.5922 237.923L81.1053 237.415L82.1316 238.431L82.6448 239.446L83.6711 239.954L84.6974 240.969L85.7237 240.461L86.3014 241.033L59.0001 251.212V250.261L58.4869 249.246V247.215L57.9737 246.2V245.184H57.4606V243.661L55.9211 242.646L53.8685 239.6L49.7632 236.554H49.2501L48.7369 235.538L47.7106 235.031H46.6843L45.658 234.523H45.1448L43.0922 233.508H42.0658L41.0395 233H40.0132L38.9869 233.508H37.9606L36.9343 234.015H34.8816L33.3422 235.031H32.829L30.7764 235.538L30.2632 236.554H28.7237L28.2106 237.569L28.7237 238.077H27.1843L24.1053 241.123V241.631H23.5922L22.5659 243.154L22.0527 243.661V244.677L21.5395 245.184L21.0264 246.2L21.5395 246.708L20.5132 247.215V249.246L20.0001 250.261V251.277L20.5132 252.292L20.0001 253.815L20.5132 254.323V255.846L21.5395 256.861L23.5922 260.923L24.1053 260.415L25.1316 261.431L25.6448 262.446L26.6711 262.954L26.9007 263.181L7.41271 270.447C1.96656 272.478 -0.2163 278.048 1.05411 282.832C-0.171494 287.323 1.60882 292.56 6.55437 294.919L484.379 522.814C506.107 533.177 531.151 534.101 553.584 525.368L1206.28 271.26C1211.66 269.163 1213.77 263.61 1212.48 258.861C1213.67 254.341 1211.82 249.098 1206.82 246.8L1160.83 225.656Z" fill="white" fill-opacity="0.17" style="mix-blend-mode:overlay"></path> </svg>