<svg width="90" height="90" viewBox="0 0 90 90" fill="none" xmlns="http://www.w3.org/2000/svg">
<path fill-rule="evenodd" clip-rule="evenodd" d="M74.7311 3.68674C68.6094 3.25997 58.8812 2.8125 45 2.8125C31.1188 2.8125 21.3906 3.25995 15.2689 3.68674C9.14561 4.11362 4.27779 8.73499 3.73389 14.9229C3.26659 20.2393 2.8125 28.2639 2.8125 39.375C2.8125 50.4861 3.26659 58.5107 3.73388 63.8271C4.27778 70.0149 9.14559 74.6364 15.2689 75.0632C20.976 75.4611 29.8178 75.8769 42.2368 75.9315L42.2151 75.9099C40.0384 73.7332 38.7878 70.9785 38.4591 68.1459C36.6885 65.9106 35.625 63.0784 35.625 60C35.625 56.9216 36.6885 54.0894 38.4591 51.8541C38.7878 49.0215 40.0384 46.2667 42.2151 44.0901C44.3918 41.9134 47.1465 40.6626 49.9791 40.3339C52.2144 38.5635 55.0466 37.5 58.125 37.5C61.2034 37.5 64.0356 38.5635 66.2709 40.3339C69.1035 40.6626 71.8582 41.9134 74.0349 44.0901C76.2116 46.2667 77.4624 49.0215 77.7911 51.8541C79.5615 54.0894 80.625 56.9216 80.625 60C80.625 63.0784 79.5617 65.9106 77.7911 68.1459C77.5041 70.6202 76.5133 73.035 74.8166 75.057C80.8997 74.5933 85.7248 69.9862 86.2661 63.8271C86.7334 58.5107 87.1875 50.4861 87.1875 39.375C87.1875 28.2639 86.7334 20.2393 86.2661 14.923C85.7222 8.73501 80.8543 4.11362 74.7311 3.68674Z" fill="#D9E9FF"/>
<path fill-rule="evenodd" clip-rule="evenodd" d="M18.75 22.5C18.75 20.4289 20.4289 18.75 22.5 18.75H61.875C63.9461 18.75 65.625 20.4289 65.625 22.5C65.625 24.5711 63.9461 26.25 61.875 26.25H22.5C20.4289 26.25 18.75 24.5711 18.75 22.5ZM22.5 33.75C20.4289 33.75 18.75 35.4289 18.75 37.5C18.75 39.5711 20.4289 41.25 22.5 41.25H33.75C35.8211 41.25 37.5 39.5711 37.5 37.5C37.5 35.4289 35.8211 33.75 33.75 33.75H22.5Z" fill="#4593FF"/>
<path fill-rule="evenodd" clip-rule="evenodd" d="M41.25 60C41.25 62.3571 42.3373 64.4602 44.0377 65.8352C43.8077 68.0098 44.5258 70.2658 46.1927 71.9325C47.4354 73.1752 49.0061 73.8908 50.6263 74.0788C50.6381 77.6209 50.736 81.7183 51.0004 86.0715C51.0962 87.6471 52.9841 88.3673 54.1234 87.2749L57.1517 84.3709C57.6956 83.8492 58.5544 83.8492 59.0983 84.3709L62.1266 87.2749C63.2659 88.3673 65.1538 87.6471 65.2496 86.0715C65.514 81.7183 65.6119 77.6209 65.6237 74.0788C67.2439 73.8908 68.8146 73.1752 70.0575 71.9325C71.7242 70.2656 72.4425 68.0098 72.2122 65.8352C73.9127 64.4602 75 62.3571 75 60C75 57.6429 73.9127 55.5397 72.2122 54.1648C72.4425 51.9902 71.7242 49.7344 70.0575 48.0675C68.3908 46.4008 66.1348 45.6827 63.9602 45.9127C62.5852 44.2123 60.4821 43.125 58.125 43.125C55.7679 43.125 53.6647 44.2123 52.2898 45.9127C50.1152 45.6827 47.8594 46.4008 46.1927 48.0675C44.5258 49.7342 43.8077 51.9902 44.0377 54.1648C42.3373 55.5397 41.25 57.6429 41.25 60Z" fill="#4593FF"/>
<path d="M53.4375 60C53.4375 61.2432 53.9314 62.4355 54.8104 63.3146C55.6895 64.1936 56.8818 64.6875 58.125 64.6875C59.3682 64.6875 60.5605 64.1936 61.4396 63.3146C62.3186 62.4355 62.8125 61.2432 62.8125 60C62.8125 58.7568 62.3186 57.5645 61.4396 56.6854C60.5605 55.8064 59.3682 55.3125 58.125 55.3125C56.8818 55.3125 55.6895 55.8064 54.8104 56.6854C53.9314 57.5645 53.4375 58.7568 53.4375 60Z" fill="#D9E9FF"/>
</svg>
