<svg width="64" height="64" viewBox="0 0 64 64" fill="none" xmlns="http://www.w3.org/2000/svg">
<path d="M32 42.6667V56.0001" stroke="#4593FF" stroke-width="4" stroke-linecap="round" stroke-linejoin="round"/>
<path d="M42.6667 37.3333V55.9999" stroke="#4593FF" stroke-width="4" stroke-linecap="round" stroke-linejoin="round"/>
<path d="M53.3333 26.6667V56.0001" stroke="#4593FF" stroke-width="4" stroke-linecap="round" stroke-linejoin="round"/>
<path d="M58.6666 8L35.6106 31.056C35.4867 31.1802 35.3396 31.2787 35.1776 31.3459C35.0156 31.4131 34.842 31.4477 34.6666 31.4477C34.4912 31.4477 34.3175 31.4131 34.1556 31.3459C33.9936 31.2787 33.8464 31.1802 33.7226 31.056L24.9439 22.2773C24.6939 22.0274 24.3548 21.887 24.0013 21.887C23.6477 21.887 23.3086 22.0274 23.0586 22.2773L5.33325 40" stroke="#4593FF" stroke-width="4" stroke-linecap="round" stroke-linejoin="round"/>
<path d="M10.6667 48V56" stroke="#4593FF" stroke-width="4" stroke-linecap="round" stroke-linejoin="round"/>
<path d="M21.3333 37.3333V55.9999" stroke="#4593FF" stroke-width="4" stroke-linecap="round" stroke-linejoin="round"/>
</svg>
