<svg width="20" height="20" viewBox="0 0 20 20" fill="none" xmlns="http://www.w3.org/2000/svg">
<path d="M17.85 9.10168C17.9992 9.03587 18.1258 8.92774 18.2141 8.79068C18.3024 8.65363 18.3486 8.49367 18.3469 8.33063C18.3453 8.16758 18.2958 8.00862 18.2046 7.87342C18.1135 7.73822 17.9847 7.63273 17.8342 7.57001L10.6917 4.31668C10.4745 4.21764 10.2387 4.16638 10 4.16638C9.76134 4.16638 9.52547 4.21764 9.30833 4.31668L2.16667 7.56668C2.01831 7.63166 1.8921 7.73846 1.80347 7.87403C1.71485 8.00959 1.66765 8.16805 1.66765 8.33001C1.66765 8.49198 1.71485 8.65043 1.80347 8.786C1.8921 8.92157 2.01831 9.02837 2.16667 9.09335L9.30833 12.35C9.52547 12.4491 9.76134 12.5003 10 12.5003C10.2387 12.5003 10.4745 12.4491 10.6917 12.35L17.85 9.10168Z" stroke="#737373" stroke-width="1.6" stroke-linecap="round" stroke-linejoin="round"/>
<path d="M18.3333 8.33334V13.3333" stroke="#737373" stroke-width="1.6" stroke-linecap="round" stroke-linejoin="round"/>
<path d="M5 10.4167V13.3333C5 13.9964 5.52678 14.6322 6.46447 15.1011C7.40215 15.5699 8.67392 15.8333 10 15.8333C11.3261 15.8333 12.5979 15.5699 13.5355 15.1011C14.4732 14.6322 15 13.9964 15 13.3333V10.4167" stroke="#737373" stroke-width="1.6" stroke-linecap="round" stroke-linejoin="round"/>
</svg>
