<svg width="64" height="64" viewBox="0 0 64 64" fill="none" xmlns="http://www.w3.org/2000/svg">
<path d="M42.6666 56V50.6667C42.6666 47.8377 41.5428 45.1246 39.5424 43.1242C37.542 41.1238 34.8289 40 31.9999 40H15.9999C13.1709 40 10.4578 41.1238 8.45745 43.1242C6.45706 45.1246 5.33325 47.8377 5.33325 50.6667V56" stroke="#4593FF" stroke-width="4" stroke-linecap="round" stroke-linejoin="round"/>
<path d="M42.6667 8.34131C44.9541 8.93429 46.9798 10.27 48.4259 12.1388C49.872 14.0076 50.6566 16.3037 50.6566 18.6666C50.6566 21.0296 49.872 23.3257 48.4259 25.1945C46.9798 27.0633 44.9541 28.399 42.6667 28.992" stroke="#4593FF" stroke-width="4" stroke-linecap="round" stroke-linejoin="round"/>
<path d="M58.6667 56V50.6667C58.665 48.3033 57.8784 46.0074 56.4304 44.1395C54.9824 42.2716 52.9551 40.9375 50.6667 40.3467" stroke="#4593FF" stroke-width="4" stroke-linecap="round" stroke-linejoin="round"/>
<path d="M23.9999 29.3333C29.891 29.3333 34.6666 24.5577 34.6666 18.6667C34.6666 12.7756 29.891 8 23.9999 8C18.1089 8 13.3333 12.7756 13.3333 18.6667C13.3333 24.5577 18.1089 29.3333 23.9999 29.3333Z" stroke="#4593FF" stroke-width="4" stroke-linecap="round" stroke-linejoin="round"/>
</svg>
