<svg width="199" height="40" viewBox="0 0 199 40" fill="none" xmlns="http://www.w3.org/2000/svg">
<g clip-path="url(#clip0_178_3552)">
<path d="M49.1911 30.4068C48.9826 30.4068 48.7842 30.3816 48.5959 30.3257C48.4028 30.2699 48.2347 30.1783 48.0925 30.0514C47.9499 29.9244 47.8482 29.7568 47.787 29.5486H48.1025C48.1687 29.6959 48.2551 29.8179 48.3721 29.9042C48.489 29.9905 48.6163 30.0566 48.7637 30.092C48.9061 30.1327 49.0485 30.1529 49.1909 30.1529C49.3488 30.1529 49.5012 30.1277 49.6488 30.0768C49.7964 30.0312 49.9133 29.9549 50.0048 29.8533C50.0964 29.7516 50.1422 29.6196 50.1422 29.4523C50.1422 29.3201 50.1169 29.2136 50.066 29.1323C50.01 29.051 49.9388 28.9849 49.8524 28.934C49.7609 28.8883 49.654 28.8479 49.5369 28.8123C49.4504 28.7868 49.3588 28.7616 49.2673 28.7362C49.1759 28.7157 49.0892 28.6955 49.003 28.6701C48.9164 28.6446 48.8299 28.6192 48.7535 28.5938C48.6468 28.5636 48.5451 28.5279 48.4435 28.482C48.3366 28.4364 48.2449 28.3805 48.1687 28.3144C48.0875 28.2486 48.0211 28.162 47.9756 28.0657C47.9246 27.9692 47.8994 27.8473 47.8994 27.7051C47.8994 27.5577 47.9196 27.4309 47.9653 27.3242C48.0113 27.2175 48.0722 27.1259 48.1537 27.0499C48.2351 26.9738 48.3266 26.9127 48.4332 26.867C48.5401 26.8214 48.6521 26.7909 48.7742 26.7655C48.8911 26.7451 49.013 26.7349 49.1404 26.7349C49.3335 26.7349 49.5168 26.7603 49.6847 26.8162C49.8526 26.872 49.995 26.9583 50.1119 27.0803C50.2288 27.2023 50.3052 27.3646 50.3357 27.5729H50.0407C50.005 27.4257 49.944 27.3138 49.8526 27.2277C49.7559 27.1414 49.649 27.0803 49.5219 27.0449C49.3947 27.0092 49.2676 26.9888 49.1352 26.9888C49.0285 26.9888 48.9216 26.999 48.8149 27.0194C48.708 27.0449 48.6063 27.0803 48.5147 27.1312C48.4232 27.182 48.3468 27.2479 48.2908 27.3344C48.2349 27.4205 48.2044 27.5323 48.2044 27.6644C48.2044 27.7964 48.2351 27.9031 48.2908 27.9894C48.3468 28.0757 48.418 28.1418 48.5097 28.1927C48.5961 28.2433 48.6978 28.289 48.8099 28.3246C48.9573 28.3705 49.1149 28.4109 49.2726 28.4466C49.4302 28.482 49.583 28.5277 49.7252 28.5733C49.8271 28.604 49.9238 28.6446 50.01 28.6903C50.0966 28.7409 50.1729 28.802 50.239 28.8681C50.3052 28.934 50.356 29.0101 50.3914 29.0966C50.4272 29.1829 50.4476 29.2844 50.4476 29.391C50.4476 29.579 50.4121 29.7364 50.3457 29.8636C50.2745 29.9905 50.1779 30.097 50.0609 30.1783C49.944 30.2594 49.8066 30.3155 49.6592 30.3512C49.5116 30.3916 49.354 30.4068 49.1911 30.4068ZM51.2258 30.3664V26.7755H51.5158V30.3664H51.2258ZM52.4415 30.3664V26.7755H52.8382L55.0052 30.0007V26.7755H55.295V30.3664H54.9136L52.7315 27.1414V30.3664H52.4415ZM57.6654 30.4068C57.2992 30.4068 56.9939 30.3257 56.7551 30.1681C56.5108 30.0107 56.3277 29.7975 56.2106 29.5233C56.0886 29.254 56.0277 28.9492 56.0224 28.609C56.0174 28.3449 56.0531 28.1012 56.1191 27.8725C56.1853 27.6492 56.282 27.451 56.4194 27.2783C56.5567 27.1107 56.7246 26.9736 56.933 26.8773C57.1365 26.7807 57.3756 26.7349 57.6504 26.7349C57.874 26.7349 58.0775 26.7653 58.2657 26.8264C58.449 26.8923 58.6066 26.9838 58.7438 27.1107C58.8762 27.2377 58.9781 27.3951 59.049 27.5933H58.7185C58.6626 27.4612 58.5812 27.3494 58.4745 27.2579C58.3676 27.1716 58.2402 27.1005 58.0978 27.0549C57.9554 27.0092 57.808 26.9888 57.6554 26.9888C57.4213 26.9888 57.218 27.0294 57.0501 27.1157C56.8822 27.202 56.7449 27.3188 56.6382 27.4662C56.5313 27.6136 56.4498 27.7862 56.4041 27.974C56.3532 28.167 56.3277 28.3703 56.3277 28.5888C56.3277 28.8731 56.3736 29.132 56.4703 29.3707C56.5618 29.6094 56.7094 29.7975 56.9077 29.9396C57.1061 30.0818 57.3554 30.1529 57.6654 30.1529C57.9249 30.1529 58.1487 30.102 58.3321 29.9955C58.5099 29.894 58.6523 29.7466 58.7488 29.5586C58.8457 29.3707 58.8964 29.1473 58.9016 28.8933H57.6654V28.6344H59.1712V28.8679C59.1712 29.1727 59.11 29.4418 58.9879 29.6705C58.8659 29.904 58.6931 30.0868 58.4692 30.2138C58.2402 30.3407 57.9759 30.4068 57.6654 30.4068ZM59.8986 30.3664V26.7755H60.1886V30.1023H62.2487V30.3662H59.8986V30.3664ZM62.7978 30.3664V26.7755H65.1479V27.0396H63.0878V28.4516H64.9394V28.7155H63.0878V30.102H65.1479V30.3662H62.7978V30.3664ZM67.2485 30.3664V26.7755H67.5385V30.3664H67.2485ZM68.4643 30.3664V26.7755H68.861L71.028 30.0007V26.7755H71.318V30.3664H70.9366L68.7545 27.1414V30.3664H68.4643ZM73.0779 30.3664V27.0396H71.8726V26.7757H74.5734V27.0396H73.3679V30.3664H73.0779ZM75.128 30.3664V26.7755H77.4779V27.0396H75.4178V28.4516H77.2693V28.7155H75.4178V30.102H77.4779V30.3662H75.128V30.3664ZM79.6499 30.4068C79.2837 30.4068 78.9784 30.3257 78.7394 30.1681C78.4953 30.0107 78.3122 29.7975 78.1951 29.5233C78.0731 29.254 78.0119 28.9492 78.0069 28.609C78.0019 28.3449 78.0376 28.1012 78.1036 27.8725C78.1698 27.6492 78.2662 27.451 78.4038 27.2783C78.541 27.1107 78.7089 26.9736 78.9175 26.8773C79.121 26.7807 79.3601 26.7349 79.6346 26.7349C79.8585 26.7349 80.062 26.7653 80.2502 26.8264C80.4335 26.8923 80.5911 26.9838 80.7283 27.1107C80.8607 27.2377 80.9623 27.3951 81.0335 27.5933H80.703C80.6471 27.4612 80.5654 27.3494 80.4587 27.2579C80.3521 27.1716 80.2247 27.1005 80.0823 27.0549C79.9399 27.0092 79.7923 26.9888 79.6399 26.9888C79.4058 26.9888 79.2025 27.0294 79.0346 27.1157C78.8665 27.202 78.7293 27.3188 78.6227 27.4662C78.5158 27.6136 78.4343 27.7862 78.3884 27.974C78.3377 28.167 78.3122 28.3703 78.3122 28.5888C78.3122 28.8731 78.3581 29.132 78.4548 29.3707C78.5462 29.6094 78.6939 29.7975 78.892 29.9396C79.0903 30.0818 79.3399 30.1529 79.6499 30.1529C79.9094 30.1529 80.1332 30.102 80.3163 29.9955C80.4944 29.894 80.6368 29.7466 80.7333 29.5586C80.83 29.3707 80.8809 29.1473 80.8859 28.8933H79.6499V28.6344H81.1557V28.8679C81.1557 29.1727 81.0945 29.4418 80.9723 29.6705C80.8504 29.904 80.6775 30.0868 80.4537 30.2138C80.2247 30.3407 79.9601 30.4068 79.6499 30.4068ZM81.8829 30.3664V26.7755H83.2053C83.3937 26.7755 83.5665 26.796 83.7244 26.8314C83.8768 26.872 84.0092 26.9329 84.1211 27.0194C84.2278 27.1057 84.3142 27.2175 84.3754 27.3546C84.4313 27.4968 84.4618 27.6694 84.4618 27.8677C84.4618 28.0555 84.4263 28.2181 84.3601 28.3551C84.2939 28.4925 84.1923 28.6092 84.0651 28.7005C83.938 28.7918 83.7853 28.8579 83.6072 28.8986L84.3906 30.3664H84.0701L83.3072 28.9494H82.1729V30.3664H81.8829ZM82.1729 28.6903H83.0632C83.2055 28.6903 83.3429 28.6801 83.4751 28.6549C83.6075 28.6344 83.7244 28.5938 83.8311 28.5329C83.933 28.4718 84.0144 28.3855 84.0754 28.274C84.1313 28.1673 84.1618 28.0251 84.1618 27.8523C84.1668 27.644 84.1263 27.4764 84.0396 27.3596C83.9532 27.2429 83.8311 27.1566 83.6837 27.1109C83.531 27.0651 83.3532 27.0396 83.1546 27.0396H82.1729V28.6903ZM84.823 30.3664L86.2117 26.7755H86.5829L87.9818 30.3664H87.6563L87.341 29.5588H85.4538L85.1435 30.3664H84.823ZM85.5504 29.2999H87.2441L86.3998 27.0753L85.5504 29.2999Z" fill="#4593FF"/>
<path d="M89.095 30.3665V27.04H87.8897V26.7759H90.5906V27.04H89.385V30.3665H89.095Z" fill="#4593FF"/>
<path d="M92.5639 30.407C92.1927 30.407 91.8825 30.3259 91.6332 30.1686C91.3839 30.0112 91.1958 29.7927 91.0686 29.5133C90.9415 29.2392 90.8803 28.9242 90.8803 28.5736C90.8803 28.2233 90.9465 27.9083 91.0736 27.629C91.2008 27.3496 91.3889 27.1314 91.6382 26.974C91.8875 26.8164 92.1927 26.7351 92.5639 26.7351C92.9354 26.7351 93.2456 26.8164 93.4947 26.974C93.7442 27.1364 93.9271 27.3549 94.0545 27.629C94.1814 27.9083 94.2426 28.2233 94.2426 28.5736C94.2426 28.9242 94.1814 29.234 94.0545 29.5133C93.9271 29.7927 93.739 30.0109 93.4897 30.1686C93.2404 30.3259 92.9354 30.407 92.5639 30.407ZM92.5639 30.1531C92.8744 30.1531 93.1337 30.082 93.3371 29.9399C93.5406 29.7977 93.6933 29.6046 93.7899 29.3659C93.8864 29.1273 93.9376 28.8631 93.9376 28.5736C93.9376 28.3553 93.9121 28.1523 93.8559 27.9592C93.8 27.7714 93.7137 27.6036 93.6016 27.4564C93.4897 27.3092 93.3473 27.1973 93.1744 27.1112C93.0013 27.0296 92.798 26.9892 92.5639 26.9892C92.2537 26.9892 91.9944 27.0603 91.7908 27.2077C91.5822 27.3551 91.4296 27.5429 91.3329 27.7816C91.2312 28.0203 91.1805 28.2842 91.1805 28.5738C91.1805 28.8583 91.2312 29.1223 91.3329 29.3609C91.4348 29.5996 91.5874 29.7927 91.7958 29.9349C91.9994 30.0823 92.2537 30.1533 92.5639 30.1533V30.1531ZM94.97 30.3664V26.7757H96.2925C96.4806 26.7757 96.6537 26.796 96.8113 26.8316C96.9639 26.8723 97.0961 26.9331 97.208 27.0196C97.3149 27.1057 97.4013 27.2175 97.4625 27.3549C97.5182 27.497 97.5489 27.6696 97.5489 27.8677C97.5489 28.0557 97.5135 28.2181 97.4471 28.3553C97.3811 28.4925 97.2792 28.6094 97.1523 28.7007C97.0249 28.792 96.8723 28.8581 96.6944 28.8988L97.4778 30.3666H97.1573L96.3941 28.9496H95.26V30.3666H94.97V30.3664ZM95.26 28.6903H96.1501C96.2927 28.6903 96.4299 28.6803 96.5622 28.6549C96.6944 28.6346 96.8115 28.5938 96.9182 28.5329C97.0199 28.472 97.1015 28.3857 97.1625 28.274C97.2184 28.1673 97.2489 28.0251 97.2489 27.8525C97.2537 27.6442 97.2132 27.4766 97.1268 27.3599C97.0403 27.2429 96.9182 27.1566 96.7708 27.1109C96.6182 27.0653 96.4401 27.0399 96.2417 27.0399H95.26V28.6903ZM99.675 30.3664V26.7757H102.025V27.0399H99.965V28.5786H101.74V28.8427H99.965V30.3664H99.675ZM104.182 30.407C103.81 30.407 103.5 30.326 103.251 30.1683C103.002 30.011 102.814 29.7925 102.686 29.5131C102.559 29.239 102.498 28.924 102.498 28.5736C102.498 28.2231 102.564 27.9083 102.691 27.629C102.819 27.3496 103.007 27.1314 103.256 26.9738C103.505 26.8164 103.81 26.7351 104.182 26.7351C104.553 26.7351 104.863 26.8164 105.113 26.9738C105.362 27.1364 105.545 27.3546 105.672 27.629C105.799 27.9083 105.86 28.2233 105.86 28.5736C105.86 28.924 105.799 29.234 105.672 29.5131C105.545 29.7925 105.357 30.011 105.108 30.1683C104.858 30.326 104.553 30.407 104.182 30.407ZM104.182 30.1531C104.492 30.1531 104.751 30.082 104.955 29.9399C105.158 29.7977 105.311 29.6046 105.408 29.3657C105.504 29.1273 105.555 28.8631 105.555 28.5736C105.555 28.3551 105.53 28.152 105.474 27.9592C105.418 27.7712 105.332 27.6036 105.219 27.4564C105.107 27.309 104.965 27.1973 104.792 27.1109C104.619 27.0296 104.416 26.9892 104.182 26.9892C103.872 26.9892 103.612 27.0601 103.409 27.2075C103.2 27.3549 103.047 27.5427 102.951 27.7814C102.849 28.0201 102.798 28.2842 102.798 28.5736C102.798 28.8581 102.849 29.1223 102.951 29.3609C103.053 29.5996 103.205 29.7927 103.414 29.9349C103.617 30.0823 103.871 30.1533 104.182 30.1533V30.1531ZM106.588 30.3664V26.7757H107.91C108.099 26.7757 108.271 26.796 108.429 26.8314C108.582 26.872 108.714 26.9331 108.826 27.0194C108.933 27.1057 109.019 27.2175 109.08 27.3546C109.136 27.4968 109.167 27.6696 109.167 27.8677C109.167 28.0555 109.131 28.2181 109.065 28.3553C108.999 28.4925 108.897 28.6092 108.77 28.7005C108.643 28.792 108.49 28.8581 108.312 28.8988L109.096 30.3664H108.775L108.012 28.9494H106.878V30.3664H106.588ZM106.878 28.6903H107.768C107.91 28.6903 108.048 28.6803 108.18 28.6549C108.312 28.6344 108.429 28.5938 108.536 28.5329C108.638 28.472 108.719 28.3855 108.78 28.274C108.836 28.1673 108.867 28.0251 108.867 27.8523C108.872 27.6442 108.831 27.4766 108.745 27.3599C108.658 27.2429 108.536 27.1566 108.389 27.1109C108.236 27.0651 108.058 27.0399 107.86 27.0399H106.878L106.878 28.6903ZM112.127 30.3664V27.0399H110.922V26.7757H113.623V27.0399H112.417V30.3664H112.127ZM114.177 30.3664V26.7757H114.467V28.477H116.654V26.7757H116.944V30.3664H116.654V28.7362H114.467V30.3664H114.177ZM117.87 30.3664V26.7757H120.22V27.0396H118.16V28.4516H120.011V28.7155H118.16V30.1023H120.22V30.3662L117.87 30.3664ZM123.765 30.407C123.394 30.407 123.084 30.3257 122.845 30.1683C122.601 30.011 122.417 29.7925 122.3 29.5131C122.184 29.239 122.122 28.924 122.122 28.5736C122.122 28.2231 122.184 27.9133 122.306 27.634C122.423 27.3599 122.606 27.1414 122.855 26.9788C123.099 26.8162 123.409 26.7349 123.781 26.7349C123.999 26.7349 124.198 26.7655 124.381 26.8314C124.559 26.8975 124.717 26.9888 124.844 27.1159C124.971 27.2427 125.063 27.4003 125.124 27.5933H124.823C124.742 27.3953 124.61 27.2427 124.427 27.1414C124.238 27.0396 124.025 26.989 123.786 26.989C123.47 26.989 123.211 27.0601 123.013 27.2075C122.809 27.3546 122.662 27.5427 122.565 27.7814C122.468 28.0199 122.417 28.279 122.417 28.5636C122.417 28.8479 122.463 29.112 122.56 29.3507C122.656 29.5944 122.804 29.7875 123.007 29.9349C123.206 30.082 123.465 30.1531 123.776 30.1531C123.933 30.1531 124.081 30.1329 124.228 30.0873C124.376 30.0414 124.503 29.9753 124.615 29.884C124.727 29.7925 124.808 29.6807 124.859 29.5488H125.189C125.124 29.7366 125.017 29.8942 124.879 30.0209C124.737 30.1481 124.569 30.2444 124.381 30.3105C124.193 30.3766 123.984 30.407 123.765 30.407ZM125.886 30.3664V26.7757H127.209C127.397 26.7757 127.57 26.796 127.728 26.8314C127.88 26.872 128.013 26.9331 128.124 27.0194C128.231 27.1057 128.318 27.2175 128.379 27.3546C128.435 27.4968 128.465 27.6696 128.465 27.8677C128.465 28.0555 128.43 28.2181 128.363 28.3553C128.297 28.4925 128.196 28.6092 128.068 28.7005C127.941 28.792 127.789 28.8581 127.611 28.8988L128.394 30.3664H128.073L127.311 28.9494H126.176V30.3664H125.886ZM126.176 28.6903H127.066C127.209 28.6903 127.346 28.6803 127.479 28.6549C127.611 28.6344 127.728 28.5938 127.834 28.5329C127.936 28.472 128.018 28.3855 128.079 28.274C128.135 28.1673 128.165 28.0251 128.165 27.8523C128.17 27.6442 128.13 27.4766 128.043 27.3599C127.957 27.2429 127.834 27.1566 127.687 27.1109C127.535 27.0651 127.356 27.0399 127.158 27.0399H126.176V28.6903ZM129.218 30.3664V26.7757H131.568V27.0396H129.508V28.4516H131.36V28.7155H129.508V30.1023H131.568V30.3662L129.218 30.3664ZM131.904 30.3664L133.293 26.7757H133.664L135.063 30.3664H134.737L134.422 29.5588H132.535L132.224 30.3664H131.904ZM132.631 29.2999H134.325L133.481 27.0753L132.631 29.2999Z" fill="#4593FF"/>
<path d="M136.174 30.3662V27.0396H134.969V26.7755H137.67V27.0396H136.464V30.3662H136.174ZM138.224 30.3662V26.7755H138.514V30.3662H138.224ZM140.925 30.4068C140.554 30.4068 140.244 30.3255 139.995 30.1681C139.745 30.0107 139.557 29.7923 139.43 29.5129C139.303 29.2388 139.242 28.9238 139.242 28.5733C139.242 28.2229 139.308 27.9081 139.435 27.6288C139.562 27.3494 139.75 27.1312 140 26.9736C140.249 26.8162 140.554 26.7349 140.925 26.7349C141.297 26.7349 141.607 26.8162 141.856 26.9736C142.106 27.1362 142.289 27.3544 142.416 27.6288C142.543 27.9081 142.604 28.2231 142.604 28.5733C142.604 28.9238 142.543 29.2336 142.416 29.5129C142.289 29.7923 142.1 30.0107 141.851 30.1681C141.602 30.3255 141.297 30.4068 140.925 30.4068ZM140.925 30.1529C141.236 30.1529 141.495 30.0818 141.698 29.9396C141.902 29.7975 142.055 29.6044 142.151 29.3655C142.248 29.127 142.299 28.8629 142.299 28.5733C142.299 28.3549 142.273 28.1518 142.218 27.959C142.161 27.7709 142.075 27.6033 141.963 27.4562C141.851 27.3088 141.709 27.197 141.536 27.1107C141.363 27.0294 141.159 26.9888 140.925 26.9888C140.615 26.9888 140.356 27.0599 140.152 27.2073C139.944 27.3546 139.791 27.5425 139.694 27.7812C139.593 28.0199 139.542 28.284 139.542 28.5733C139.542 28.8579 139.593 29.122 139.694 29.3607C139.796 29.5994 139.949 29.7925 140.157 29.9346C140.361 30.082 140.615 30.1531 140.925 30.1531V30.1529ZM143.331 30.3662V26.7755H143.728L145.895 30.0005V26.7755H146.185V30.3662H145.804L143.621 27.1412V30.3662H143.331ZM148.093 30.3662L149.481 26.7755H149.852L151.251 30.3662H150.926L150.61 29.5586H148.723L148.413 30.3662H148.093ZM148.82 29.2996H150.514L149.669 27.0751L148.82 29.2996ZM151.785 30.3662V26.7755H152.182L154.349 30.0005V26.7755H154.639V30.3662H154.258L152.075 27.1412V30.3662H151.785ZM155.565 30.3662V26.7755H156.816C157.187 26.7755 157.498 26.8516 157.747 26.999C157.996 27.1512 158.179 27.3596 158.306 27.6286C158.434 27.8979 158.495 28.2127 158.495 28.5733C158.495 28.9288 158.434 29.2388 158.306 29.5079C158.179 29.777 157.996 29.9853 157.747 30.1377C157.498 30.2901 157.187 30.3662 156.816 30.3662H155.565ZM155.855 30.102H156.775C157.096 30.102 157.36 30.0362 157.569 29.9092C157.777 29.782 157.93 29.5994 158.037 29.3707C158.144 29.1423 158.195 28.8731 158.195 28.5733C158.195 28.2788 158.144 28.0146 158.042 27.7812C157.94 27.5527 157.787 27.3699 157.584 27.2377C157.381 27.1057 157.121 27.0396 156.811 27.0396H155.855V30.102ZM161.852 30.4068C161.643 30.4068 161.445 30.3814 161.257 30.3255C161.064 30.2696 160.895 30.1783 160.753 30.0514C160.61 29.9244 160.509 29.7568 160.448 29.5486H160.763C160.829 29.6959 160.916 29.8177 161.033 29.904C161.15 29.9903 161.277 30.0564 161.425 30.0918C161.567 30.1325 161.709 30.1529 161.852 30.1529C162.009 30.1529 162.162 30.1275 162.31 30.0768C162.457 30.031 162.574 29.9549 162.666 29.8531C162.757 29.7516 162.803 29.6196 162.803 29.452C162.803 29.3201 162.777 29.2133 162.727 29.132C162.671 29.0509 162.6 28.9846 162.513 28.934C162.421 28.8883 162.315 28.8477 162.198 28.812C162.111 28.7866 162.02 28.7614 161.928 28.736C161.836 28.7157 161.75 28.6953 161.664 28.6699C161.577 28.6446 161.491 28.6192 161.414 28.5938C161.308 28.5633 161.206 28.5277 161.104 28.482C160.997 28.4364 160.906 28.3803 160.829 28.3144C160.748 28.2483 160.682 28.162 160.636 28.0655C160.585 27.969 160.56 27.8473 160.56 27.7049C160.56 27.5577 160.58 27.4307 160.626 27.324C160.672 27.2175 160.733 27.1259 160.814 27.0499C160.896 26.9738 160.987 26.9127 161.094 26.867C161.201 26.8214 161.313 26.791 161.435 26.7653C161.552 26.7451 161.674 26.7349 161.801 26.7349C161.994 26.7349 162.178 26.7603 162.345 26.8162C162.513 26.872 162.656 26.9583 162.773 27.0801C162.89 27.202 162.966 27.3644 162.996 27.5729H162.701C162.666 27.4255 162.605 27.3138 162.513 27.2275C162.417 27.1414 162.31 27.0801 162.183 27.0446C162.055 27.0092 161.928 26.9888 161.796 26.9888C161.689 26.9888 161.582 26.999 161.476 27.0192C161.369 27.0446 161.267 27.0801 161.175 27.1312C161.084 27.1818 161.008 27.2479 160.952 27.3342C160.896 27.4205 160.865 27.5323 160.865 27.6642C160.865 27.7962 160.896 27.9029 160.952 27.9892C161.008 28.0757 161.079 28.1416 161.17 28.1925C161.257 28.2433 161.359 28.289 161.47 28.3246C161.618 28.3703 161.776 28.411 161.933 28.4464C162.091 28.482 162.244 28.5277 162.386 28.5733C162.488 28.604 162.585 28.6444 162.671 28.6901C162.757 28.741 162.834 28.802 162.9 28.8679C162.966 28.934 163.017 29.0101 163.052 29.0966C163.088 29.1827 163.108 29.2844 163.108 29.391C163.108 29.579 163.073 29.7364 163.007 29.8633C162.935 29.9903 162.839 30.097 162.722 30.1783C162.605 30.2594 162.467 30.3155 162.32 30.351C162.172 30.3916 162.014 30.4068 161.852 30.4068ZM165.255 30.4068C164.929 30.4068 164.665 30.3407 164.461 30.2038C164.253 30.0664 164.105 29.8838 164.009 29.6451C163.912 29.4114 163.861 29.1423 163.861 28.8375V26.7755H164.156V28.8223C164.156 29.0709 164.192 29.2944 164.268 29.4925C164.339 29.6957 164.456 29.8583 164.619 29.9751C164.782 30.0918 164.995 30.1529 165.26 30.1529C165.535 30.1529 165.753 30.0918 165.911 29.9699C166.069 29.8531 166.185 29.6905 166.257 29.4875C166.323 29.2894 166.359 29.0659 166.359 28.822V26.7753H166.654V28.8373C166.654 29.142 166.608 29.4114 166.511 29.6449C166.415 29.8836 166.267 30.0664 166.058 30.2036C165.85 30.3407 165.585 30.4068 165.255 30.4068ZM167.554 30.3662V26.7755H168.764C169.024 26.7755 169.248 26.8162 169.436 26.8975C169.619 26.9836 169.761 27.1107 169.858 27.2833C169.955 27.4562 170.005 27.6744 170.005 27.9436C170.005 28.2075 169.95 28.4259 169.833 28.5988C169.715 28.7766 169.553 28.9086 169.354 28.9951C169.151 29.0812 168.922 29.127 168.668 29.127H167.844V30.3662H167.554ZM167.844 28.8679H168.653C168.968 28.8679 169.222 28.7918 169.416 28.6394C169.609 28.4923 169.706 28.2536 169.706 27.9233C169.706 27.6136 169.619 27.3851 169.451 27.2477C169.283 27.1107 169.044 27.0396 168.739 27.0396H167.844V28.8679ZM170.738 30.3662V26.7755H171.949C172.208 26.7755 172.432 26.8162 172.62 26.8975C172.803 26.9836 172.946 27.1107 173.042 27.2833C173.139 27.4562 173.19 27.6744 173.19 27.9436C173.19 28.2075 173.134 28.4259 173.017 28.5988C172.9 28.7766 172.737 28.9086 172.539 28.9951C172.335 29.0812 172.106 29.127 171.852 29.127H171.028V30.3662H170.738ZM171.028 28.8679H171.837C172.152 28.8679 172.407 28.7918 172.6 28.6394C172.793 28.4923 172.89 28.2536 172.89 27.9233C172.89 27.6136 172.803 27.3851 172.635 27.2477C172.467 27.1107 172.228 27.0396 171.923 27.0396H171.028V28.8679ZM175.407 30.4068C175.036 30.4068 174.726 30.3255 174.477 30.1681C174.227 30.0107 174.039 29.7923 173.912 29.5129C173.785 29.2388 173.724 28.9238 173.724 28.5733C173.724 28.2229 173.79 27.9081 173.917 27.6288C174.044 27.3494 174.233 27.1312 174.482 26.9736C174.731 26.8162 175.036 26.7349 175.407 26.7349C175.779 26.7349 176.089 26.8162 176.338 26.9736C176.588 27.1362 176.771 27.3544 176.898 27.6288C177.025 27.9081 177.086 28.2231 177.086 28.5733C177.086 28.9238 177.025 29.2336 176.898 29.5129C176.771 29.7923 176.582 30.0107 176.333 30.1681C176.084 30.3255 175.779 30.4068 175.407 30.4068ZM175.407 30.1529C175.718 30.1529 175.977 30.0818 176.181 29.9396C176.384 29.7975 176.537 29.6044 176.633 29.3655C176.73 29.127 176.781 28.8629 176.781 28.5733C176.781 28.3549 176.756 28.1518 176.7 27.959C176.643 27.7709 176.557 27.6033 176.445 27.4562C176.333 27.3088 176.191 27.197 176.018 27.1107C175.845 27.0294 175.641 26.9888 175.407 26.9888C175.097 26.9888 174.838 27.0599 174.634 27.2073C174.426 27.3546 174.273 27.5425 174.176 27.7812C174.075 28.0199 174.024 28.284 174.024 28.5733C174.024 28.8579 174.075 29.122 174.176 29.3607C174.278 29.5994 174.431 29.7925 174.639 29.9346C174.843 30.082 175.097 30.1531 175.407 30.1531V30.1529ZM177.813 30.3662V26.7755H179.136C179.324 26.7755 179.497 26.7957 179.655 26.8312C179.807 26.8718 179.94 26.9329 180.051 27.0192C180.158 27.1055 180.245 27.2173 180.306 27.3544C180.362 27.4966 180.392 27.6694 180.392 27.8675C180.392 28.0553 180.357 28.2179 180.291 28.3551C180.224 28.4923 180.123 28.609 179.996 28.7003C179.869 28.7918 179.716 28.8579 179.538 28.8986L180.321 30.3662H180.001L179.238 28.9492H178.104V30.3662H177.813ZM178.104 28.6901H178.994C179.136 28.6901 179.273 28.6801 179.406 28.6546C179.538 28.6342 179.655 28.5936 179.762 28.5327C179.864 28.4718 179.945 28.3853 180.006 28.2738C180.062 28.167 180.092 28.0249 180.092 27.852C180.097 27.644 180.057 27.4764 179.97 27.3596C179.884 27.2427 179.762 27.1564 179.614 27.1107C179.462 27.0649 179.284 27.0396 179.085 27.0396H178.104V28.6901ZM181.979 30.3662V27.0396H180.774V26.7755H183.475V27.0396H182.269V30.3662H181.979Z" fill="#4593FF"/>
<path d="M49.4247 36.672C49.0534 36.672 48.7432 36.5909 48.4939 36.4333C48.2446 36.2759 48.0565 36.0576 47.9291 35.778C47.8022 35.5039 47.741 35.1891 47.741 34.8385C47.741 34.4883 47.8072 34.1733 47.9343 33.8939C48.0615 33.6146 48.2496 33.3963 48.4991 33.2389C48.7482 33.0813 49.0534 33 49.4247 33C49.7961 33 50.1064 33.0813 50.3557 33.2389C50.605 33.4013 50.7878 33.6196 50.9152 33.8939C51.0421 34.1733 51.1033 34.4883 51.1033 34.8385C51.1033 35.1891 51.0421 35.4987 50.9152 35.778C50.7878 36.0576 50.5997 36.2759 50.3504 36.4333C50.1014 36.5909 49.7961 36.672 49.4247 36.672ZM49.4247 36.418C49.7351 36.418 49.9945 36.347 50.1978 36.2048C50.4014 36.0626 50.554 35.8696 50.6507 35.6309C50.7473 35.392 50.7983 35.1278 50.7983 34.8385C50.7983 34.62 50.7728 34.417 50.7169 34.2241C50.6607 34.0363 50.5742 33.8685 50.4623 33.7213C50.3504 33.5739 50.208 33.4622 50.0352 33.3759C49.8621 33.2946 49.6587 33.2541 49.4247 33.2541C49.1144 33.2541 48.8551 33.3252 48.6515 33.4724C48.4429 33.6198 48.2903 33.8076 48.1937 34.0463C48.092 34.285 48.0412 34.5491 48.0412 34.8387C48.0412 35.123 48.092 35.3872 48.1937 35.6259C48.2955 35.8646 48.4482 36.0576 48.6565 36.1998C48.8601 36.3472 49.1144 36.418 49.4247 36.418ZM51.8307 36.6313V33.0407H54.1809V33.3046H52.1207V34.8435H53.8959V35.1076H52.1207V36.6313H51.8307ZM57.4768 36.672C57.2684 36.672 57.0698 36.6465 56.8817 36.5907C56.6884 36.5348 56.5205 36.4435 56.3781 36.3163C56.2357 36.1893 56.1341 36.022 56.0729 35.8137H56.3884C56.4543 35.9611 56.541 36.0828 56.6579 36.1691C56.7748 36.2554 56.902 36.3215 57.0496 36.357C57.192 36.3976 57.3344 36.418 57.4768 36.418C57.6346 36.418 57.787 36.3926 57.9346 36.3417C58.0822 36.2961 58.199 36.22 58.2906 36.1183C58.3823 36.0167 58.428 35.8848 58.428 35.7172C58.428 35.585 58.4027 35.4785 58.3518 35.3972C58.2958 35.3161 58.2244 35.2498 58.1382 35.1991C58.0465 35.1533 57.9396 35.1128 57.8227 35.0772C57.7363 35.0517 57.6446 35.0265 57.5532 35.0011C57.4615 34.9807 57.3751 34.9604 57.2886 34.935C57.2022 34.9096 57.1158 34.8841 57.0394 34.8589C56.9327 34.8285 56.831 34.7928 56.7291 34.7472C56.6224 34.7013 56.5308 34.6454 56.4545 34.5796C56.3731 34.5135 56.3069 34.4272 56.2612 34.3307C56.2105 34.2341 56.185 34.1122 56.185 33.97C56.185 33.8226 56.2055 33.6959 56.2512 33.5891C56.2969 33.4824 56.3579 33.3911 56.4393 33.315C56.521 33.2389 56.6124 33.1778 56.7191 33.1322C56.826 33.0863 56.9379 33.0559 57.06 33.0304C57.177 33.0102 57.2989 33 57.4262 33C57.6194 33 57.8027 33.0252 57.9706 33.0813C58.1382 33.1372 58.2808 33.2235 58.3977 33.3452C58.5147 33.4672 58.5909 33.6296 58.6216 33.838H58.3265C58.2908 33.6907 58.2299 33.5789 58.1382 33.4926C58.0418 33.4063 57.9349 33.3452 57.8075 33.3098C57.6806 33.2741 57.5532 33.2539 57.421 33.2539C57.3143 33.2539 57.2074 33.2641 57.1008 33.2843C56.9938 33.3098 56.892 33.3452 56.8005 33.3961C56.7088 33.447 56.6326 33.513 56.5767 33.5993C56.5207 33.6857 56.4903 33.7974 56.4903 33.9293C56.4903 34.0613 56.5209 34.168 56.5767 34.2543C56.6326 34.3409 56.7038 34.4067 56.7955 34.4576C56.8819 34.5085 56.9836 34.5541 57.0955 34.5896C57.2431 34.6354 57.4008 34.6759 57.5584 34.7115C57.716 34.747 57.8687 34.7928 58.0111 34.8385C58.113 34.8689 58.2096 34.9096 58.2958 34.9552C58.3825 35.0061 58.4587 35.067 58.5249 35.133C58.5909 35.1991 58.6418 35.2752 58.6773 35.3615C58.713 35.4478 58.7335 35.5496 58.7335 35.6561C58.7335 35.8441 58.6978 36.0015 58.6316 36.1285C58.5604 36.2554 58.4637 36.362 58.3468 36.4435C58.2299 36.5246 58.0925 36.5804 57.9449 36.6161C57.7975 36.6567 57.6398 36.672 57.477 36.672H57.4768Z" fill="#4593FF"/>
<path d="M60.2953 36.6312V33.3047H59.0899V33.0405H61.7908V33.3047H60.5853V36.6312H60.2953Z" fill="#4593FF"/>
<path d="M61.6985 36.6312L63.0871 33.0405H63.4583L64.8572 36.6312H64.5317L64.2162 35.8236H62.3292L62.019 36.6312H61.6985ZM62.4259 35.5647H64.1196L63.2752 33.3401L62.4259 35.5647Z" fill="#4593FF"/>
<path d="M65.9714 36.6313V33.3048H64.7661V33.0407H67.467V33.3048H66.2617V36.6313H65.9714ZM68.0215 36.6313V33.0407H70.3717V33.3046H68.3115V34.7165H70.1631V34.9807H68.3115V36.3672H70.3717V36.6313H68.0215ZM72.4722 36.6313V33.0407H72.7623V36.6313H72.4722ZM73.688 36.6313V33.0407H74.0847L76.2517 36.2657V33.0407H76.5417V36.6313H76.1603L73.978 33.4063V36.6313H73.688ZM77.4675 36.6313V33.0407H79.8174V33.3046H77.7573V34.8435H79.5326V35.1076H77.7573V36.6313H77.4675ZM81.974 36.672C81.6027 36.672 81.2927 36.5907 81.0432 36.4333C80.7941 36.2759 80.6058 36.0574 80.4786 35.778C80.3515 35.5039 80.2905 35.1889 80.2905 34.8385C80.2905 34.488 80.3567 34.173 80.4836 33.8937C80.611 33.6146 80.7991 33.3961 81.0484 33.2387C81.2975 33.0813 81.6027 33 81.974 33C82.3454 33 82.6557 33.0813 82.9049 33.2387C83.1542 33.4011 83.3373 33.6196 83.4645 33.8937C83.5916 34.1733 83.6528 34.4883 83.6528 34.8385C83.6528 35.1889 83.5916 35.4987 83.4645 35.778C83.3373 36.0574 83.1492 36.2759 82.8999 36.4333C82.6506 36.5907 82.3454 36.672 81.974 36.672ZM81.974 36.418C82.2844 36.418 82.5437 36.347 82.7473 36.2048C82.9507 36.0624 83.1033 35.8693 83.2 35.6307C83.2966 35.392 83.3476 35.1278 83.3476 34.8385C83.3476 34.62 83.3221 34.417 83.2662 34.2239C83.2102 34.0361 83.1238 33.8685 83.0116 33.7211C82.8999 33.5739 82.7573 33.462 82.5845 33.3759C82.4116 33.2946 82.2082 33.2539 81.974 33.2539C81.6639 33.2539 81.4044 33.325 81.2008 33.4724C80.9925 33.6198 80.8396 33.8076 80.7429 34.0463C80.6415 34.285 80.5905 34.5491 80.5905 34.8385C80.5905 35.123 80.6415 35.3872 80.7429 35.6259C80.8448 35.8646 80.9975 36.0576 81.206 36.1998C81.4094 36.347 81.6637 36.418 81.974 36.418ZM84.3802 36.6313V33.0407H85.7025C85.8908 33.0407 86.0637 33.0609 86.2215 33.0963C86.374 33.137 86.5063 33.198 86.6182 33.2843C86.7251 33.3707 86.8114 33.4824 86.8725 33.6196C86.9285 33.7617 86.959 33.9346 86.959 34.1326C86.959 34.3204 86.9235 34.483 86.8573 34.62C86.7911 34.7574 86.6894 34.8741 86.5623 34.9654C86.4351 35.057 86.2825 35.123 86.1044 35.1637L86.8878 36.6313H86.5673L85.8044 35.2143H84.67V36.6313H84.3802ZM84.67 34.9552H85.5603C85.7027 34.9552 85.8401 34.945 85.9722 34.9198C86.1046 34.8994 86.2215 34.8587 86.3282 34.7978C86.4301 34.7367 86.5116 34.6504 86.5725 34.5389C86.6285 34.4322 86.659 34.29 86.659 34.1172C86.664 33.9089 86.6235 33.7415 86.537 33.6246C86.4504 33.5076 86.3282 33.4215 86.1808 33.3757C86.0284 33.33 85.8503 33.3046 85.6518 33.3046H84.6703V34.9552H84.67ZM87.7119 36.6313V33.0407H88.1393L89.4058 35.2293L90.652 33.0407H91.0692V36.6313H90.7789V33.3654L89.4717 35.6561H89.3293L88.0019 33.3654V36.6313H87.7119ZM91.6032 36.6313L92.9919 33.0407H93.3631L94.762 36.6313H94.4365L94.121 35.8237H92.234L91.9237 36.6313H91.6032ZM92.3307 35.5646H94.0246L93.18 33.3402L92.3307 35.5646Z" fill="#4593FF"/>
<path d="M95.8736 36.631V33.3045H94.6682V33.0404H97.3691V33.3045H96.1636V36.631H95.8738H95.8736ZM97.9237 36.631V33.0404H98.2137V36.631H97.9237ZM100.625 36.6717C100.253 36.6717 99.943 36.5904 99.6938 36.433C99.4445 36.2756 99.2564 36.0571 99.1292 35.7778C99.002 35.5036 98.9411 35.1886 98.9411 34.8382C98.9411 34.4878 99.0071 34.1728 99.1342 33.8934C99.2614 33.6141 99.4497 33.3958 99.699 33.2384C99.9481 33.081 100.253 32.9995 100.625 32.9995C100.996 32.9995 101.306 33.081 101.556 33.2384C101.805 33.4008 101.988 33.6193 102.115 33.8934C102.242 34.173 102.303 34.4878 102.303 34.8382C102.303 35.1886 102.242 35.4984 102.115 35.7778C101.988 36.0571 101.8 36.2754 101.551 36.433C101.301 36.5904 100.996 36.6717 100.625 36.6717ZM100.625 36.4178C100.935 36.4178 101.194 36.3465 101.398 36.2045C101.601 36.0621 101.754 35.8691 101.851 35.6304C101.947 35.3917 101.998 35.1276 101.998 34.8382C101.998 34.6197 101.973 34.4167 101.917 34.2236C101.861 34.0358 101.774 33.868 101.662 33.7208C101.55 33.5736 101.408 33.4617 101.235 33.3756C101.062 33.2943 100.859 33.2536 100.625 33.2536C100.314 33.2536 100.055 33.3247 99.8514 33.4721C99.6428 33.6193 99.4902 33.8073 99.3937 34.046C99.2921 34.2847 99.2411 34.5489 99.2411 34.8382C99.2411 35.1228 99.2921 35.3869 99.3937 35.6256C99.4954 35.8641 99.648 36.0571 99.8564 36.1995C100.06 36.3467 100.314 36.4178 100.625 36.4178H100.625ZM103.031 36.631V33.0402H103.428L105.594 36.2654V33.0402H105.884V36.631H105.503L103.321 33.4058V36.631H103.031ZM109.435 36.6715C109.226 36.6715 109.028 36.646 108.839 36.5904C108.646 36.5343 108.478 36.443 108.336 36.316C108.193 36.1891 108.092 36.0215 108.031 35.8132H108.346C108.412 35.9606 108.499 36.0823 108.616 36.1686C108.733 36.2552 108.86 36.321 109.007 36.3567C109.15 36.3973 109.292 36.4176 109.435 36.4176C109.592 36.4176 109.745 36.3923 109.892 36.3415C110.04 36.2958 110.157 36.2195 110.248 36.118C110.34 36.0163 110.386 35.8843 110.386 35.7167C110.386 35.5847 110.361 35.478 110.31 35.3969C110.254 35.3156 110.182 35.2495 110.096 35.1986C110.005 35.153 109.898 35.1123 109.781 35.0769C109.694 35.0515 109.603 35.026 109.511 35.0008C109.419 34.9804 109.333 34.9602 109.247 34.9345C109.16 34.9093 109.074 34.8839 108.997 34.8584C108.891 34.828 108.789 34.7926 108.687 34.7467C108.58 34.701 108.489 34.6452 108.412 34.5791C108.331 34.5132 108.265 34.4267 108.219 34.3302C108.168 34.2339 108.143 34.1119 108.143 33.9697C108.143 33.8223 108.163 33.6956 108.209 33.5889C108.255 33.4821 108.316 33.3906 108.397 33.3145C108.479 33.2384 108.57 33.1773 108.677 33.1317C108.784 33.086 108.896 33.0556 109.018 33.0299C109.135 33.0097 109.257 32.9995 109.384 32.9995C109.577 32.9995 109.76 33.0249 109.928 33.0808C110.096 33.1367 110.239 33.223 110.355 33.3449C110.473 33.4667 110.549 33.6293 110.58 33.8376H110.284C110.249 33.6904 110.188 33.5784 110.096 33.4923C110 33.406 109.893 33.3449 109.765 33.3095C109.638 33.2739 109.511 33.2534 109.379 33.2534C109.272 33.2534 109.165 33.2636 109.059 33.2841C108.952 33.3095 108.85 33.3449 108.758 33.3958C108.667 33.4465 108.59 33.5126 108.534 33.5989C108.479 33.6852 108.448 33.7969 108.448 33.9291C108.448 34.061 108.479 34.1678 108.534 34.2541C108.59 34.3404 108.662 34.4065 108.753 34.4571C108.84 34.508 108.941 34.5536 109.054 34.5893C109.201 34.6349 109.359 34.6756 109.516 34.7112C109.674 34.7467 109.827 34.7923 109.969 34.838C110.071 34.8686 110.167 34.9091 110.254 34.9547C110.34 35.0056 110.416 35.0667 110.483 35.1326C110.549 35.1986 110.6 35.2747 110.635 35.3613C110.671 35.4476 110.691 35.5491 110.691 35.6556C110.691 35.8436 110.656 36.001 110.589 36.128C110.518 36.2552 110.422 36.3617 110.305 36.443C110.188 36.5241 110.05 36.5802 109.903 36.6158C109.755 36.6562 109.598 36.6715 109.435 36.6715Z" fill="#4593FF"/>
<path d="M112.273 36.6312V35.2803L110.996 33.0405H111.342L112.42 34.9857L113.499 33.0405H113.829L112.563 35.2751V36.6312H112.273Z" fill="#4593FF"/>
<path d="M115.535 36.672C115.326 36.672 115.128 36.6465 114.939 36.5909C114.746 36.5348 114.578 36.4435 114.436 36.3165C114.293 36.1893 114.192 36.022 114.13 35.8137H114.446C114.512 35.9611 114.599 36.0828 114.715 36.1691C114.832 36.2554 114.96 36.3215 115.107 36.357C115.25 36.3978 115.392 36.418 115.535 36.418C115.692 36.418 115.845 36.3926 115.992 36.3417C116.14 36.2961 116.257 36.22 116.348 36.1183C116.44 36.0167 116.486 35.8848 116.486 35.7172C116.486 35.585 116.46 35.4785 116.409 35.3972C116.353 35.3161 116.282 35.2498 116.196 35.1991C116.104 35.1533 115.997 35.1128 115.881 35.0772C115.794 35.052 115.702 35.0265 115.611 35.0011C115.519 34.9809 115.433 34.9607 115.346 34.935C115.26 34.9096 115.173 34.8844 115.097 34.8589C114.99 34.8285 114.889 34.7928 114.787 34.7472C114.68 34.7015 114.588 34.6454 114.512 34.5796C114.431 34.5137 114.364 34.4272 114.319 34.3307C114.268 34.2341 114.243 34.1122 114.243 33.97C114.243 33.8228 114.263 33.6959 114.309 33.5891C114.355 33.4826 114.416 33.3911 114.497 33.315C114.579 33.2389 114.67 33.1778 114.777 33.1322C114.884 33.0865 114.995 33.0559 115.118 33.0304C115.235 33.0102 115.357 33 115.484 33C115.677 33 115.86 33.0254 116.028 33.0813C116.196 33.1372 116.338 33.2235 116.455 33.3454C116.572 33.4672 116.649 33.6298 116.679 33.838H116.384C116.348 33.6907 116.287 33.5789 116.196 33.4926C116.099 33.4063 115.992 33.3454 115.865 33.3098C115.738 33.2743 115.611 33.2539 115.479 33.2539C115.372 33.2539 115.265 33.2641 115.158 33.2846C115.051 33.3098 114.95 33.3454 114.858 33.3961C114.767 33.447 114.69 33.513 114.634 33.5993C114.578 33.6857 114.548 33.7974 114.548 33.9296C114.548 34.0613 114.579 34.168 114.634 34.2543C114.69 34.3409 114.761 34.407 114.853 34.4576C114.939 34.5085 115.041 34.5541 115.153 34.5898C115.301 34.6354 115.458 34.6759 115.616 34.7115C115.774 34.7472 115.926 34.7928 116.069 34.8385C116.171 34.8689 116.267 34.9096 116.354 34.9552C116.44 35.0061 116.516 35.0672 116.582 35.133C116.649 35.1991 116.699 35.2752 116.735 35.3617C116.771 35.4478 116.791 35.5496 116.791 35.6561C116.791 35.8441 116.756 36.0015 116.689 36.1285C116.618 36.2554 116.521 36.3622 116.404 36.4435C116.287 36.5246 116.15 36.5804 116.003 36.6161C115.855 36.6567 115.697 36.672 115.535 36.672Z" fill="#4593FF"/>
<path d="M118.352 36.6313V33.3048H117.146V33.0407H119.847V33.3048H118.642V36.6313H118.352ZM120.402 36.6313V33.0407H122.752V33.3046H120.692V34.7165H122.543V34.9807H120.692V36.3672H122.752V36.6313H120.402ZM123.479 36.6313V33.0407H123.906L125.173 35.2296L126.419 33.0407H126.836V36.6313H126.546V33.3657L125.239 35.6561H125.097L123.769 33.3657V36.6313H123.479ZM129.013 36.672C128.805 36.672 128.606 36.6465 128.418 36.5907C128.225 36.5348 128.057 36.4435 127.915 36.3163C127.772 36.1893 127.671 36.022 127.609 35.8137H127.925C127.991 35.9611 128.078 36.0828 128.195 36.1691C128.311 36.2554 128.439 36.3215 128.586 36.357C128.729 36.3976 128.871 36.418 129.013 36.418C129.171 36.418 129.324 36.3926 129.471 36.3417C129.619 36.2961 129.736 36.22 129.827 36.1183C129.919 36.0167 129.965 35.8848 129.965 35.7172C129.965 35.585 129.939 35.4785 129.888 35.3972C129.832 35.3161 129.761 35.2498 129.675 35.1991C129.583 35.1533 129.476 35.1128 129.359 35.0772C129.273 35.0517 129.181 35.0265 129.09 35.0011C128.998 34.9807 128.912 34.9604 128.825 34.935C128.739 34.9096 128.652 34.8841 128.576 34.8589C128.469 34.8285 128.367 34.7928 128.266 34.7472C128.159 34.7013 128.067 34.6454 127.991 34.5796C127.91 34.5135 127.844 34.4272 127.798 34.3307C127.747 34.2341 127.722 34.1122 127.722 33.97C127.722 33.8226 127.742 33.6959 127.788 33.5891C127.834 33.4824 127.894 33.3911 127.976 33.315C128.057 33.2389 128.149 33.1778 128.256 33.1322C128.363 33.0863 128.475 33.0559 128.596 33.0304C128.713 33.0102 128.835 33 128.963 33C129.156 33 129.339 33.0252 129.507 33.0813C129.675 33.1372 129.817 33.2235 129.934 33.3452C130.051 33.4672 130.127 33.6296 130.158 33.838H129.863C129.827 33.6907 129.766 33.5789 129.675 33.4926C129.578 33.4063 129.471 33.3452 129.344 33.3098C129.217 33.2741 129.09 33.2539 128.958 33.2539C128.851 33.2539 128.744 33.2641 128.637 33.2843C128.53 33.3098 128.429 33.3452 128.337 33.3961C128.245 33.447 128.169 33.513 128.113 33.5993C128.057 33.6857 128.027 33.7974 128.027 33.9293C128.027 34.0613 128.057 34.168 128.113 34.2543C128.169 34.3409 128.24 34.4067 128.332 34.4576C128.419 34.5085 128.52 34.5541 128.632 34.5896C128.78 34.6354 128.937 34.6759 129.095 34.7115C129.253 34.747 129.405 34.7928 129.548 34.8385C129.649 34.8689 129.746 34.9096 129.832 34.9552C129.919 35.0061 129.995 35.067 130.061 35.133C130.127 35.1991 130.178 35.2752 130.214 35.3615C130.25 35.4478 130.27 35.5496 130.27 35.6561C130.27 35.8441 130.234 36.0015 130.168 36.1285C130.097 36.2554 130 36.362 129.883 36.4435C129.766 36.5246 129.629 36.5804 129.481 36.6161C129.334 36.6567 129.176 36.672 129.013 36.672Z" fill="#4593FF"/>
<path d="M63.1196 16.1617C63.1196 18.2893 62.4457 19.9177 61.1191 21.025C59.7927 22.154 57.8794 22.7183 55.4221 22.7183C52.9433 22.7183 51.0298 22.154 49.7034 21.025C48.3552 19.9177 47.6812 18.2893 47.6812 16.1617V7.30351H51.2255V16.4439C51.2255 17.2689 51.3777 17.8986 51.6603 18.3329C51.9431 18.7887 52.3997 19.0927 52.9869 19.2446C53.5739 19.4184 54.4001 19.5052 55.4221 19.5052C56.4441 19.5052 57.2704 19.4184 57.8574 19.2446C58.4446 19.0709 58.9014 18.7669 59.184 18.3111C59.4666 17.8769 59.597 17.2471 59.597 16.4439V7.30351H63.1196V16.1617ZM65.3593 19.1362L73.9703 10.4082H65.5986V7.30351H78.7321V10.7773L70.078 19.3967H78.9496V22.5014H65.3593V19.1362ZM81.3851 7.30351H85.0163V22.5014H81.3851V7.30351ZM88.4302 7.30351H93.1488L99.2154 15.7492L100.651 17.7901H100.738L100.716 15.7926V7.30351H104.239V22.5014H99.7155L93.4749 13.73L92.0181 11.6457H91.931L91.953 13.73V22.5014H88.4302V7.30351ZM111.175 10.5384V13.6215H118.416V16.7479H111.175V22.5014H107.631V7.30351H119.133V10.5384H111.175ZM129.788 22.7183C128.07 22.7183 126.527 22.3927 125.2 21.7633C123.874 21.1336 122.83 20.2434 122.091 19.071C121.33 17.8987 120.96 16.5308 120.96 14.9459C120.96 13.3609 121.33 11.9714 122.091 10.7773C122.83 9.58312 123.874 8.6713 125.222 8.0418C126.548 7.41214 128.07 7.08651 129.788 7.08651C131.506 7.08651 133.05 7.41223 134.376 8.0418C135.703 8.67136 136.725 9.58321 137.464 10.7773C138.203 11.9714 138.573 13.3609 138.573 14.9459C138.573 16.5308 138.203 17.8987 137.464 19.071C136.703 20.2434 135.681 21.1336 134.354 21.7633C133.028 22.3929 131.506 22.7183 129.788 22.7183ZM129.788 19.5052C131.571 19.5052 132.876 19.1361 133.702 18.3979C134.507 17.6814 134.92 16.5091 134.92 14.9025C134.92 13.7301 134.746 12.8181 134.376 12.1452C134.007 11.4722 133.463 10.9945 132.724 10.7122C131.984 10.43 131.006 10.2996 129.788 10.2996C128.571 10.2996 127.592 10.43 126.853 10.7122C126.092 10.9944 125.548 11.4722 125.178 12.1452C124.809 12.8181 124.635 13.7301 124.635 14.9025C124.635 16.0967 124.809 17.0301 125.178 17.7032C125.548 18.3763 126.092 18.8322 126.831 19.0928C127.57 19.375 128.549 19.5052 129.788 19.5052ZM148.902 22.7183C147.162 22.7183 145.618 22.3927 144.292 21.7633C142.944 21.1336 141.9 20.2434 141.16 19.071C140.4 17.8987 140.03 16.5308 140.03 14.9459C140.03 13.3392 140.378 11.9498 141.095 10.7556C141.813 9.58312 142.835 8.6713 144.161 8.04173C145.487 7.41208 147.075 7.08643 148.901 7.08643C151.185 7.08643 153.011 7.62908 154.403 8.69301C155.773 9.77858 156.621 11.3851 156.947 13.4911L153.403 14.1643L153.359 14.1426C153.185 13.1002 152.968 12.3188 152.685 11.7759C152.402 11.2333 151.989 10.864 151.424 10.6253C150.837 10.4081 150.011 10.2995 148.901 10.2995C147.575 10.2995 146.553 10.4299 145.814 10.7122C145.053 10.9943 144.531 11.4721 144.205 12.1451C143.879 12.818 143.705 13.73 143.705 14.9024C143.705 16.0966 143.879 17.0083 144.205 17.6813C144.531 18.3544 145.074 18.8104 145.835 19.0926C146.575 19.3748 147.597 19.5051 148.902 19.5051C150.011 19.5051 150.837 19.3749 151.424 19.136C152.011 18.8973 152.424 18.528 152.707 17.9853C152.99 17.4426 153.207 16.661 153.359 15.6406L153.403 15.6188L156.947 16.2918C156.621 18.4195 155.773 20.0262 154.403 21.0901C153.011 22.1757 151.185 22.7183 148.902 22.7183ZM167.558 22.7183C165.841 22.7183 164.297 22.3927 162.97 21.7633C161.644 21.1336 160.6 20.2434 159.861 19.071C159.1 17.8987 158.73 16.5308 158.73 14.9459C158.73 13.3609 159.1 11.9714 159.861 10.7773C160.6 9.58312 161.644 8.6713 162.992 8.0418C164.318 7.41214 165.841 7.08651 167.558 7.08651C169.276 7.08651 170.82 7.41223 172.147 8.0418C173.473 8.67136 174.495 9.58321 175.234 10.7773C175.973 11.9714 176.343 13.3609 176.343 14.9459C176.343 16.5308 175.973 17.8987 175.234 19.071C174.473 20.2434 173.451 21.1336 172.125 21.7633C170.798 22.3929 169.276 22.7183 167.558 22.7183ZM167.558 19.5052C169.341 19.5052 170.646 19.1361 171.472 18.3979C172.277 17.6814 172.69 16.5091 172.69 14.9025C172.69 13.7301 172.516 12.8181 172.147 12.1452C171.777 11.4722 171.233 10.9945 170.494 10.7122C169.754 10.43 168.776 10.2996 167.558 10.2996C166.34 10.2996 165.362 10.43 164.623 10.7122C163.862 10.9944 163.318 11.4722 162.949 12.1452C162.579 12.8181 162.405 13.7301 162.405 14.9025C162.405 16.0967 162.579 17.0301 162.949 17.7032C163.318 18.3763 163.862 18.8322 164.601 19.0928C165.34 19.375 166.319 19.5052 167.558 19.5052ZM178.778 7.30351H184.78L187.911 16.2051L188.868 19.3098L189.825 16.2051L192.934 7.30351H198.914V22.5014H195.522V13.6431L195.565 10.5818H195.478L194.369 13.6431L191.064 22.5014H186.672L183.345 13.6431L182.257 10.5818H182.171L182.193 13.6431V22.5014H178.778V7.30351Z" fill="#4593FF"/>
<path fill-rule="evenodd" clip-rule="evenodd" d="M39.9475 0.00016585H5.24734C2.3613 0.00016585 0.00012207 2.35764 0.00012207 5.23938V6.40405C0.949324 6.54892 2.00334 6.82864 3.14521 7.23296C6.7408 8.5067 11.2175 11.0241 16.0243 14.4996C19.9308 11.5937 23.5254 9.51481 26.4414 8.4829C29.2897 7.47479 31.5005 7.4631 32.7371 8.64883C34.138 9.99123 34.0816 12.6755 32.8323 16.1912C31.556 19.7814 29.035 24.2512 25.5544 29.0506C28.465 32.9513 30.5464 36.5408 31.5799 39.4523C31.6324 39.5989 31.6814 39.7432 31.728 39.8862H34.7004C37.5863 39.8862 39.9475 37.5293 39.9475 34.6476V0.00016585ZM0.00012207 21.9978V34.6471C0.00012207 36.6073 1.09251 38.3241 2.69932 39.2219C3.92391 39.258 5.4058 38.958 7.09103 38.3528C10.5265 37.1206 14.8007 34.6247 19.4748 31.1302C19.5116 31.1021 19.565 31.1099 19.5936 31.1469C19.6193 31.1815 19.6148 31.2302 19.5842 31.2595C18.2675 32.5132 16.9556 33.6993 15.6613 34.8112C14.3435 35.9428 13.0431 36.9982 11.7732 37.9686L11.7726 37.9693L11.0313 38.5286L11.0309 38.5289L11.03 38.5295L11.0294 38.5299C10.3921 39.0047 9.76281 39.4571 9.14232 39.886H25.3404C26.5398 38.5071 26.4719 36.076 25.3415 32.9343C24.107 29.5043 21.6072 25.2367 18.1073 20.5694C18.0791 20.5324 18.0867 20.4786 18.124 20.4506C18.1587 20.4249 18.2074 20.4295 18.2365 20.4599H18.2369C19.4923 21.7747 20.681 23.0849 21.7945 24.3771C22.896 25.656 23.9252 26.9186 24.8751 28.153C26.5196 24.951 27.5803 22.1108 27.9592 19.8175C28.325 17.6007 28.0537 15.8987 27.0563 14.8812C25.7127 13.5113 23.2017 13.5323 19.9138 14.7121C16.4784 15.9446 12.2048 18.44 7.53038 21.9347C7.49323 21.9628 7.44009 21.9554 7.41126 21.9178C7.3857 21.8834 7.39034 21.8345 7.42108 21.8056H7.42082C8.73711 20.5526 10.0484 19.3663 11.3422 18.2554C12.623 17.1547 13.8889 16.1269 15.1255 15.1783C11.9186 13.5362 9.07413 12.4766 6.77742 12.0984C4.55676 11.7326 2.85246 12.0035 1.83341 12.9997C0.460894 14.3413 0.482571 16.8486 1.66399 20.1308C2.89797 23.561 5.39775 27.8286 8.89773 32.4949C8.92606 32.5323 8.91783 32.5858 8.88038 32.6139C8.84624 32.6399 8.7974 32.6354 8.76801 32.6043V32.6049C7.513 31.2906 6.32545 29.9812 5.21238 28.6895C4.07864 27.3732 3.02113 26.0743 2.04902 24.8056L2.04852 24.8054L1.48817 24.0652L1.4875 24.0647L1.48725 24.0636L1.4865 24.0632C0.963942 23.3641 0.46837 22.6749 0.00012207 21.9978Z" fill="#4593FF"/>
</g>
<defs>
<clipPath id="clip0_178_3552">
<rect width="199" height="40" fill="white"/>
</clipPath>
</defs>
</svg>
