<svg width="64" height="64" viewBox="0 0 64 64" fill="none" xmlns="http://www.w3.org/2000/svg">
<path d="M42.6667 34.6666L56.5947 43.9519C56.7955 44.0855 57.0288 44.1622 57.2697 44.1737C57.5106 44.1852 57.7501 44.1312 57.9627 44.0173C58.1754 43.9035 58.3531 43.7341 58.4771 43.5272C58.6011 43.3204 58.6666 43.0837 58.6667 42.8426V20.9866C58.6668 20.752 58.605 20.5215 58.4875 20.3184C58.37 20.1154 58.201 19.9469 57.9976 19.83C57.7942 19.7132 57.5635 19.652 57.3289 19.6528C57.0943 19.6536 56.864 19.7163 56.6614 19.8346L42.6667 27.9999" stroke="#4593FF" stroke-width="4" stroke-linecap="round" stroke-linejoin="round"/>
<path d="M37.3333 16H10.6666C7.72107 16 5.33325 18.3878 5.33325 21.3333V42.6667C5.33325 45.6122 7.72107 48 10.6666 48H37.3333C40.2788 48 42.6666 45.6122 42.6666 42.6667V21.3333C42.6666 18.3878 40.2788 16 37.3333 16Z" stroke="#4593FF" stroke-width="4" stroke-linecap="round" stroke-linejoin="round"/>
</svg>
